<?xml version="1.0" encoding="UTF-8" standalone="no"?>
<!-- Created with Inkscape (http://www.inkscape.org/) -->

<svg
   xmlns:dc="http://purl.org/dc/elements/1.1/"
   xmlns:cc="http://creativecommons.org/ns#"
   xmlns:rdf="http://www.w3.org/1999/02/22-rdf-syntax-ns#"
   xmlns:svg="http://www.w3.org/2000/svg"
   xmlns="http://www.w3.org/2000/svg"
   xmlns:sodipodi="http://sodipodi.sourceforge.net/DTD/sodipodi-0.dtd"
   xmlns:inkscape="http://www.inkscape.org/namespaces/inkscape"
   width="210mm"
   height="297mm"
   viewBox="0 0 210 297"
   version="1.1"
   id="svg8"
   inkscape:version="0.92.4 (5da689c313, 2019-01-14)"
   sodipodi:docname="Logo.svg">
  <title
     id="title1201">ServiceInstaller</title>
  <defs
     id="defs2" />
  <sodipodi:namedview
     id="base"
     pagecolor="#ffffff"
     bordercolor="#666666"
     borderopacity="1.0"
     inkscape:pageopacity="0.0"
     inkscape:pageshadow="2"
     inkscape:zoom="1"
     inkscape:cx="98.073642"
     inkscape:cy="722.6533"
     inkscape:document-units="mm"
     inkscape:current-layer="layer1"
     showgrid="false"
     inkscape:window-width="1920"
     inkscape:window-height="1018"
     inkscape:window-x="0"
     inkscape:window-y="32"
     inkscape:window-maximized="1"
     showguides="false"
     inkscape:object-paths="false"
     inkscape:snap-intersection-paths="false" />
  <metadata
     id="metadata5">
    <rdf:RDF>
      <cc:Work
         rdf:about="">
        <dc:format>image/svg+xml</dc:format>
        <dc:type
           rdf:resource="http://purl.org/dc/dcmitype/StillImage" />
        <dc:title>ServiceInstaller</dc:title>
        <dc:creator>
          <cc:Agent>
            <dc:title>CreativeAcer</dc:title>
          </cc:Agent>
        </dc:creator>
      </cc:Work>
    </rdf:RDF>
  </metadata>
  <g
     inkscape:label="Layer 1"
     inkscape:groupmode="layer"
     id="layer1">
    <path
       d="m -515.67849,119.18186 37.47119,-13.35079 38.47992,13.11344 -6.23037,49.57591 -32.24955,17.86038 -31.74519,-17.62303 z"
       style="fill:#2b2e3a;fill-opacity:1;stroke-width:0.26458332"
       id="path1171"
       inkscape:connector-curvature="0" />
    <path
       d="m -592.34062,47.12781 37.4712,-13.350774 38.47991,13.113424 -6.23037,49.57591 -32.24954,17.86039 -31.7452,-17.62303 z"
       style="fill:#2b2e3a;fill-opacity:1;stroke-width:0.26458332"
       id="path1150"
       inkscape:connector-curvature="0" />
    <path
       style="color:#000000;font-style:normal;font-variant:normal;font-weight:normal;font-stretch:normal;font-size:medium;line-height:normal;font-family:sans-serif;font-variant-ligatures:normal;font-variant-position:normal;font-variant-caps:normal;font-variant-numeric:normal;font-variant-alternates:normal;font-feature-settings:normal;text-indent:0;text-align:start;text-decoration:none;text-decoration-line:none;text-decoration-style:solid;text-decoration-color:#000000;letter-spacing:normal;word-spacing:normal;text-transform:none;writing-mode:lr-tb;direction:ltr;text-orientation:mixed;dominant-baseline:auto;baseline-shift:baseline;text-anchor:start;white-space:normal;shape-padding:0;clip-rule:nonzero;display:inline;overflow:visible;visibility:visible;opacity:1;isolation:auto;mix-blend-mode:normal;color-interpolation:sRGB;color-interpolation-filters:linearRGB;solid-color:#000000;solid-opacity:1;vector-effect:none;fill:#b0b4bc;fill-opacity:1;fill-rule:nonzero;stroke:none;stroke-width:19.65354347;stroke-linecap:round;stroke-linejoin:round;stroke-miterlimit:4;stroke-dasharray:none;stroke-dashoffset:0;stroke-opacity:1;color-rendering:auto;image-rendering:auto;shape-rendering:auto;text-rendering:auto;enable-background:accumulate"
       d="M -954.23047 52.818359 A 7.4333513 7.4333513 0 0 0 -959.375 54.994141 L -1017.1367 112.75586 A 7.4333513 7.4333513 0 0 0 -1017.1367 123.26758 L -964.57617 175.82812 L -964.62891 175.88281 L -954.11914 186.39258 L -906.86914 233.64258 L -954.11914 280.89453 L -1001.3691 233.64258 L -991.35156 223.62305 L -1001.8613 213.11328 L -1017.1348 228.38672 A 7.4333513 7.4333513 0 0 0 -1017.1367 238.90039 L -959.375 296.66016 A 7.4333513 7.4333513 0 0 0 -954.00977 298.83594 A 7.4333513 7.4333513 0 0 0 -948.86328 296.66016 L -891.10156 238.89844 A 7.4333513 7.4333513 0 0 0 -891.10156 228.38672 L -943.66211 175.82617 L -943.60742 175.77344 L -954.11914 165.26172 L -1001.3691 118.01172 L -954.11914 70.759766 L -906.86914 118.01172 L -917.32422 128.4668 L -906.85156 139.01562 L -891.10352 123.26758 A 7.4333513 7.4333513 0 0 0 -891.10352 112.75586 L -948.86523 54.994141 A 7.4333513 7.4333513 0 0 0 -954.22852 52.818359 L -954.23047 52.818359 z "
       transform="scale(0.26458333)"
       id="path1105" />
    <path
       inkscape:connector-curvature="0"
       id="path1107"
       style="fill:#2b2e3a;fill-opacity:1;stroke-width:0.26458332"
       d="m -466.36948,-6.8910522 59.62647,-21.2445868 61.23162,20.8668938 -9.91415,78.8882442 -51.31747,28.420541 -50.51491,-28.042848 z" />
    <path
       style="opacity:1;fill:#b0b4bc;fill-opacity:1;fill-rule:evenodd;stroke:#808000;stroke-width:0;stroke-linecap:round;stroke-linejoin:round;stroke-miterlimit:4;stroke-dasharray:none;stroke-dashoffset:0;stroke-opacity:1"
       d="m -226.61563,0.66662007 a 6.2177087,6.2177087 0 0 0 -6.21771,6.21771003 6.2177087,6.2177087 0 0 0 6.21771,6.2177099 6.2177087,6.2177087 0 0 0 6.21771,-6.2177099 6.2177087,6.2177087 0 0 0 -6.21771,-6.21771003 z m 0,2.77813003 a 3.4395838,3.4395838 0 0 1 3.43958,3.43958 3.4395838,3.4395838 0 0 1 -3.43958,3.4395799 3.4395838,3.4395838 0 0 1 -3.43959,-3.4395799 3.4395838,3.4395838 0 0 1 3.43959,-3.43958 z"
       id="path1103"
       inkscape:connector-curvature="0" />
    <g
       id="g1111"
       style="fill:#9feaf9;fill-rule:nonzero;stroke-width:0.56358701"
       transform="matrix(0.4694631,0,0,0.4694631,-409.32966,55.632047)">
      <path
         inkscape:connector-curvature="0"
         style="fill:#e23237;fill-opacity:1;fill-rule:nonzero;stroke-width:0.56358701"
         id="path1109"
         d="m 358.17273,211.06443 c 8.904,24.86 23.469,40.167 39.847,40.167 11.945,0 22.996,-8.143 31.614,-22.478 1.90377,-3.06493 -2.75712,-5.86697 -4.571,-2.748 -7.745,12.883 -17.258,19.892 -27.043,19.892 -13.605,0 -26.596,-13.652 -34.825,-36.63 -1.15286,-3.44154 -6.31367,-1.5945 -5.021,1.797 z m 81.322,-4.863 c 4.61,-14.728 7.085,-31.718 7.085,-49.423 0,-44.179 -15.463,-82.263045 -37.487,-92.042045 -3.21112,-1.34495 -5.31522,3.39415 -2.164,4.874 13.97798,6.2073 25.43977,26.299449 30.88831,52.615275 2.20819,10.66532 3.42869,22.35291 3.42869,34.55277 0,17.177 -2.397,33.63 -6.84,47.83 -1.12646,3.42677 4.0619,5.05055 5.09,1.593 z m 50.224,-2.612 c 0,-7.049 -5.714,-12.763 -12.763,-12.763 -7.049,0 -12.763,5.714 -12.763,12.763 0,7.049 5.714,12.763 12.763,12.763 7.049,0 12.763,-5.714 12.763,-12.763 z m -5.333,0 c 0,4.10348 -3.32652,7.43 -7.43,7.43 -4.10348,0 -7.43,-3.32652 -7.43,-7.43 0,-4.10348 3.32652,-7.43 7.43,-7.43 4.10348,0 7.43,3.32652 7.43,7.43 z m -165.486,12.763 c 7.05,0 12.764,-5.714 12.764,-12.763 0,-7.049 -5.715,-12.763 -12.764,-12.763 -7.048,0 -12.763,5.714 -12.763,12.763 0,7.049 5.715,12.763 12.763,12.763 z m 0,-5.333 c -4.10348,0 -7.43,-3.32652 -7.43,-7.43 0,-4.10348 3.32652,-7.43 7.43,-7.43 4.10348,0 7.42999,3.32652 7.42999,7.43 0,4.10348 -3.32651,7.43 -7.42999,7.43 z M 394.35391,51.063185 c -7.049,0 -12.76367,5.71468 -12.76367,12.76368 0,7.049 5.71467,12.76171 12.76367,12.76171 7.049,0 12.76172,-5.71271 12.76172,-12.76171 0,-7.049 -5.71272,-12.76368 -12.76172,-12.76368 z m 0,5.33204 a 7.4306641,7.4306641 0 0 1 0,14.86132 7.4306641,7.4306641 0 1 1 0,-14.86132 z m 70.66882,107.669205 c 17.028,-20.116 22.973,-40.348 14.795,-54.512 -6.017,-10.423004 -18.738,-15.926024 -35.645,-16.146024 a 2.667,2.667 0 0 0 -0.069,5.333016 c 15.205,0.198004 26.165,4.939008 31.096,13.480008 6.792,11.765 1.49,29.807 -14.248,48.399 a 2.667,2.667 0 1 0 4.071,3.446 z m -43.761,-68.175016 c -15.396,3.299012 -31.784,9.749016 -47.522,18.835016 -38.942,22.483 -64.345,55.636 -60.817,79.675 a 2.667,2.667 0 1 0 5.277,-0.775 c -3.133,-21.344 20.947,-52.769 58.207,-74.281 15.267,-8.815 31.135,-15.06 45.972,-18.239 a 2.667,2.667 0 1 0 -1.117,-5.215016 z m -51.357,1.112004 c -26.005,-4.736016 -46.567,0.221 -54.762,14.415012 -6.115,10.592 -4.367,24.635 4.24,39.646 a 2.667,2.667 0 1 0 4.626,-2.653 c -7.752,-13.522 -9.261,-25.641 -4.247,-34.326 6.808,-11.791 25.148,-16.213008 49.187,-11.835 a 2.667,2.667 0 0 0 0.956,-5.247012 z m -36.999,72.307012 c 10.515,11.555 24.176,22.394 39.756,31.388 37.723,21.78 77.883,27.601 97.675,14.106 a 2.667,2.667 0 1 0 -3.005,-4.406 c -17.714,12.078 -55.862,6.548 -92.003,-14.318 -15.114,-8.726 -28.343,-19.222 -38.478,-30.36 a 2.667,2.667 0 1 0 -3.945,3.59 z" />
    </g>
    <path
       id="path1152"
       style="opacity:1;fill:#b0b4bc;fill-opacity:1;fill-rule:evenodd;stroke:#808000;stroke-width:0;stroke-linecap:round;stroke-linejoin:round;stroke-miterlimit:4;stroke-dasharray:none;stroke-dashoffset:0;stroke-opacity:1"
       d="m -554.36506,62.50656 a 1.7036549,1.7036549 0 0 0 -1.70365,1.70365 1.7036549,1.7036549 0 0 0 1.70365,1.70366 1.7036549,1.7036549 0 0 0 1.70366,-1.70366 1.7036549,1.7036549 0 0 0 -1.70366,-1.70365 z m 0,0.76121 a 0.94244741,0.94244747 0 0 1 0.94245,0.94244 0.94244741,0.94244747 0 0 1 -0.94245,0.94245 0.94244741,0.94244747 0 0 1 -0.94244,-0.94245 0.94244741,0.94244747 0 0 1 0.94244,-0.94244 z m -0.008,4.49412 a 0.53888781,0.53888782 0 0 0 -0.37296,0.15773 l -4.18749,4.18749 a 0.53888781,0.53888782 0 0 0 0,0.76206 l 3.81042,3.81043 -0.004,0.004 0.76192,0.76191 3.42543,3.42544 -3.42543,3.42558 -3.42543,-3.42558 0.72623,-0.72638 -0.76191,-0.76192 -1.10727,1.10727 a 0.53888781,0.53888782 0 0 0 -1.4e-4,0.7622 l 4.18749,4.18736 a 0.53888781,0.53888782 0 0 0 0.38896,0.15774 0.53888781,0.53888782 0 0 0 0.3731,-0.15774 l 4.18749,-4.18751 a 0.53888781,0.53888782 0 0 0 0,-0.76205 l -3.81043,-3.81043 0.004,-0.004 -0.76205,-0.76206 -3.42544,-3.42543 3.42544,-3.42558 3.42543,3.42558 -0.75795,0.75795 0.75922,0.76475 1.14167,-1.14168 a 0.53888781,0.53888782 0 0 0 0,-0.76205 l -4.18751,-4.18749 a 0.53888781,0.53888782 0 0 0 -0.38881,-0.15774 z"
       inkscape:connector-curvature="0" />
    <g
       transform="matrix(0.29337832,0,0,0.29337832,-671.10843,28.378372)"
       style="fill:#9feaf9;fill-rule:nonzero;stroke-width:0.64141494"
       id="g1156">
      <path
         d="m 358.17273,211.06443 c 8.904,24.86 23.469,40.167 39.847,40.167 11.945,0 22.996,-8.143 31.614,-22.478 1.90377,-3.06493 -2.75712,-5.86697 -4.571,-2.748 -7.745,12.883 -17.258,19.892 -27.043,19.892 -13.605,0 -26.596,-13.652 -34.825,-36.63 -1.15286,-3.44154 -6.31367,-1.5945 -5.021,1.797 z m 81.322,-4.863 c 4.61,-14.728 7.085,-31.718 7.085,-49.423 0,-44.179 -15.463,-82.263045 -37.487,-92.042045 -3.21112,-1.34495 -5.31522,3.39415 -2.164,4.874 13.97798,6.2073 25.43977,26.299449 30.88831,52.615275 2.20819,10.66532 3.42869,22.35291 3.42869,34.55277 0,17.177 -2.397,33.63 -6.84,47.83 -1.12646,3.42677 4.0619,5.05055 5.09,1.593 z m 50.224,-2.612 c 0,-7.049 -5.714,-12.763 -12.763,-12.763 -7.049,0 -12.763,5.714 -12.763,12.763 0,7.049 5.714,12.763 12.763,12.763 7.049,0 12.763,-5.714 12.763,-12.763 z m -5.333,0 c 0,4.10348 -3.32652,7.43 -7.43,7.43 -4.10348,0 -7.43,-3.32652 -7.43,-7.43 0,-4.10348 3.32652,-7.43 7.43,-7.43 4.10348,0 7.43,3.32652 7.43,7.43 z m -165.486,12.763 c 7.05,0 12.764,-5.714 12.764,-12.763 0,-7.049 -5.715,-12.763 -12.764,-12.763 -7.048,0 -12.763,5.714 -12.763,12.763 0,7.049 5.715,12.763 12.763,12.763 z m 0,-5.333 c -4.10348,0 -7.43,-3.32652 -7.43,-7.43 0,-4.10348 3.32652,-7.43 7.43,-7.43 4.10348,0 7.42999,3.32652 7.42999,7.43 0,4.10348 -3.32651,7.43 -7.42999,7.43 z M 394.35391,51.063185 c -7.049,0 -12.76367,5.71468 -12.76367,12.76368 0,7.049 5.71467,12.76171 12.76367,12.76171 7.049,0 12.76172,-5.71271 12.76172,-12.76171 0,-7.049 -5.71272,-12.76368 -12.76172,-12.76368 z m 0,5.33204 a 7.4306641,7.4306641 0 0 1 0,14.86132 7.4306641,7.4306641 0 1 1 0,-14.86132 z m 70.66882,107.669205 c 17.028,-20.116 22.973,-40.348 14.795,-54.512 -6.017,-10.423004 -18.738,-15.926024 -35.645,-16.146024 a 2.667,2.667 0 0 0 -0.069,5.333016 c 15.205,0.198004 26.165,4.939008 31.096,13.480008 6.792,11.765 1.49,29.807 -14.248,48.399 a 2.667,2.667 0 1 0 4.071,3.446 z m -43.761,-68.175016 c -15.396,3.299012 -31.784,9.749016 -47.522,18.835016 -38.942,22.483 -64.345,55.636 -60.817,79.675 a 2.667,2.667 0 1 0 5.277,-0.775 c -3.133,-21.344 20.947,-52.769 58.207,-74.281 15.267,-8.815 31.135,-15.06 45.972,-18.239 a 2.667,2.667 0 1 0 -1.117,-5.215016 z m -51.357,1.112004 c -26.005,-4.736016 -46.567,0.221 -54.762,14.415012 -6.115,10.592 -4.367,24.635 4.24,39.646 a 2.667,2.667 0 1 0 4.626,-2.653 c -7.752,-13.522 -9.261,-25.641 -4.247,-34.326 6.808,-11.791 25.148,-16.213008 49.187,-11.835 a 2.667,2.667 0 0 0 0.956,-5.247012 z m -36.999,72.307012 c 10.515,11.555 24.176,22.394 39.756,31.388 37.723,21.78 77.883,27.601 97.675,14.106 a 2.667,2.667 0 1 0 -3.005,-4.406 c -17.714,12.078 -55.862,6.548 -92.003,-14.318 -15.114,-8.726 -28.343,-19.222 -38.478,-30.36 a 2.667,2.667 0 1 0 -3.945,3.59 z"
         id="path1154"
         style="fill:#e23237;fill-opacity:1;fill-rule:nonzero;stroke-width:0.64141494"
         inkscape:connector-curvature="0" />
    </g>
    <path
       id="path1160"
       style="color:#000000;font-style:normal;font-variant:normal;font-weight:normal;font-stretch:normal;font-size:medium;line-height:normal;font-family:sans-serif;font-variant-ligatures:normal;font-variant-position:normal;font-variant-caps:normal;font-variant-numeric:normal;font-variant-alternates:normal;font-feature-settings:normal;text-indent:0;text-align:start;text-decoration:none;text-decoration-line:none;text-decoration-style:solid;text-decoration-color:#000000;letter-spacing:normal;word-spacing:normal;text-transform:none;writing-mode:lr-tb;direction:ltr;text-orientation:mixed;dominant-baseline:auto;baseline-shift:baseline;text-anchor:start;white-space:normal;shape-padding:0;clip-rule:nonzero;display:inline;overflow:visible;visibility:visible;opacity:1;isolation:auto;mix-blend-mode:normal;color-interpolation:sRGB;color-interpolation-filters:linearRGB;solid-color:#000000;solid-opacity:1;vector-effect:none;fill:#b0b4bc;fill-opacity:1;fill-rule:nonzero;stroke:none;stroke-width:5.19999981;stroke-linecap:round;stroke-linejoin:round;stroke-miterlimit:4;stroke-dasharray:none;stroke-dashoffset:0;stroke-opacity:1;color-rendering:auto;image-rendering:auto;shape-rendering:auto;text-rendering:auto;enable-background:accumulate"
       d="m -196.58794,78.53808 a 1.9667409,1.9667409 0 0 0 1.36176,-0.57574 l 15.28268,-15.28308 a 1.9667409,1.9667409 0 0 0 0,-2.78097 L -195.22618,44.6156 a 1.9667409,1.9667409 0 0 0 -2.78098,0 l -1.39068,1.39069 2.78097,2.78098 12.50171,12.5017 -12.50171,12.50171 -12.5017,-12.50171 8.53915,-8.53954 -2.78059,-2.78098 -9.92983,9.92984 a 1.9667409,1.9667409 0 0 0 -2.7e-4,2.78137 l 15.28269,15.28268 a 1.9667409,1.9667409 0 0 0 1.41961,0.57574 z m -0.0579,-65.09257 a 1.9667409,1.9667409 0 0 0 -1.36177,0.57574 l -15.28268,15.28308 a 1.9667409,1.9667409 0 0 0 0,2.78098 l 15.28268,15.28269 a 1.9667409,1.9667409 0 0 0 2.78098,0 l 1.39069,-1.39069 -2.78098,-2.78098 -12.50171,-12.50171 12.50171,-12.5017 12.5017,12.5017 -8.53915,8.53955 2.78059,2.78098 9.92984,-9.92984 a 1.9667409,1.9667409 0 0 0 5.3e-4,-2.78137 l -15.28278,-15.28269 a 1.9667409,1.9667409 0 0 0 -1.4196,-0.57574 z"
       inkscape:connector-curvature="0" />
    <path
       id="path1169"
       d="m -477.72643,129.18302 a 1.5702811,1.5702811 0 0 0 -1.08676,0.45963 l -12.20206,12.20205 a 1.5702811,1.5702811 0 0 0 0,2.22058 l 11.10331,11.10331 -0.0112,0.0116 2.22017,2.22017 9.98147,9.98147 -9.98147,9.98188 -9.98146,-9.98188 2.11618,-2.11661 -2.22016,-2.22017 -3.22649,3.22649 a 1.5702811,1.5702811 0 0 0 -3.8e-4,2.22099 l 12.20206,12.20161 a 1.5702811,1.5702811 0 0 0 1.13339,0.45963 1.5702811,1.5702811 0 0 0 1.08718,-0.45963 l 12.20206,-12.20206 a 1.5702811,1.5702811 0 0 0 0,-2.22057 l -11.10331,-11.10332 0.0116,-0.0111 -2.22059,-2.22059 -9.98146,-9.98147 9.98146,-9.98188 9.98148,9.98188 -2.20862,2.20862 2.21233,2.22842 3.32675,-3.32675 a 1.5702811,1.5702811 0 0 0 0,-2.22057 l -12.20208,-12.20208 a 1.5702811,1.5702811 0 0 0 -1.13299,-0.45963 z"
       style="color:#000000;font-style:normal;font-variant:normal;font-weight:normal;font-stretch:normal;font-size:medium;line-height:normal;font-family:sans-serif;font-variant-ligatures:normal;font-variant-position:normal;font-variant-caps:normal;font-variant-numeric:normal;font-variant-alternates:normal;font-feature-settings:normal;text-indent:0;text-align:start;text-decoration:none;text-decoration-line:none;text-decoration-style:solid;text-decoration-color:#000000;letter-spacing:normal;word-spacing:normal;text-transform:none;writing-mode:lr-tb;direction:ltr;text-orientation:mixed;dominant-baseline:auto;baseline-shift:baseline;text-anchor:start;white-space:normal;shape-padding:0;clip-rule:nonzero;display:inline;overflow:visible;visibility:visible;opacity:1;isolation:auto;mix-blend-mode:normal;color-interpolation:sRGB;color-interpolation-filters:linearRGB;solid-color:#000000;solid-opacity:1;vector-effect:none;fill:#b0b4bc;fill-opacity:1;fill-rule:nonzero;stroke:none;stroke-width:5.19999886;stroke-linecap:round;stroke-linejoin:round;stroke-miterlimit:4;stroke-dasharray:none;stroke-dashoffset:0;stroke-opacity:1;color-rendering:auto;image-rendering:auto;shape-rendering:auto;text-rendering:auto;enable-background:accumulate"
       inkscape:connector-curvature="0" />
    <g
       transform="matrix(0.07296933,0,0,0.07296933,-506.73945,106.85788)"
       style="fill:#ff0000;fill-rule:nonzero;stroke:none;stroke-width:0;stroke-miterlimit:4;stroke-dasharray:none;stroke-opacity:1"
       id="g1177">
      <path
         d="m 358.17273,211.06443 c 8.904,24.86 23.469,40.167 39.847,40.167 11.945,0 22.996,-8.143 31.614,-22.478 1.90377,-3.06493 -2.75712,-5.86697 -4.571,-2.748 -7.745,12.883 -17.258,19.892 -27.043,19.892 -13.605,0 -26.596,-13.652 -34.825,-36.63 -1.15286,-3.44154 -6.31367,-1.5945 -5.021,1.797 z m 81.322,-4.863 c 4.61,-14.728 7.085,-31.718 7.085,-49.423 0,-44.179 -15.463,-82.263045 -37.487,-92.042045 -3.21112,-1.34495 -5.31522,3.39415 -2.164,4.874 13.97798,6.2073 25.43977,26.299449 30.88831,52.615275 2.20819,10.66532 3.42869,22.35291 3.42869,34.55277 0,17.177 -2.397,33.63 -6.84,47.83 -1.12646,3.42677 4.0619,5.05055 5.09,1.593 z m 50.224,-2.612 c 0,-7.049 -5.714,-12.763 -12.763,-12.763 -7.049,0 -12.763,5.714 -12.763,12.763 0,7.049 5.714,12.763 12.763,12.763 7.049,0 12.763,-5.714 12.763,-12.763 z m -5.333,0 c 0,4.10348 -3.32652,7.43 -7.43,7.43 -4.10348,0 -7.43,-3.32652 -7.43,-7.43 0,-4.10348 3.32652,-7.43 7.43,-7.43 4.10348,0 7.43,3.32652 7.43,7.43 z m -165.486,12.763 c 7.05,0 12.764,-5.714 12.764,-12.763 0,-7.049 -5.715,-12.763 -12.764,-12.763 -7.048,0 -12.763,5.714 -12.763,12.763 0,7.049 5.715,12.763 12.763,12.763 z m 0,-5.333 c -4.10348,0 -7.43,-3.32652 -7.43,-7.43 0,-4.10348 3.32652,-7.43 7.43,-7.43 4.10348,0 7.42999,3.32652 7.42999,7.43 0,4.10348 -3.32651,7.43 -7.42999,7.43 z M 394.35391,51.063185 c -7.049,0 -12.76367,5.71468 -12.76367,12.76368 0,7.049 5.71467,12.76171 12.76367,12.76171 7.049,0 12.76172,-5.71271 12.76172,-12.76171 0,-7.049 -5.71272,-12.76368 -12.76172,-12.76368 z m 0,5.33204 a 7.4306641,7.4306641 0 0 1 0,14.86132 7.4306641,7.4306641 0 1 1 0,-14.86132 z m 70.66882,107.669205 c 17.028,-20.116 22.973,-40.348 14.795,-54.512 -6.017,-10.423004 -18.738,-15.926024 -35.645,-16.146024 a 2.667,2.667 0 0 0 -0.069,5.333016 c 15.205,0.198004 26.165,4.939008 31.096,13.480008 6.792,11.765 1.49,29.807 -14.248,48.399 a 2.667,2.667 0 1 0 4.071,3.446 z m -43.761,-68.175016 c -15.396,3.299012 -31.784,9.749016 -47.522,18.835016 -38.942,22.483 -64.345,55.636 -60.817,79.675 a 2.667,2.667 0 1 0 5.277,-0.775 c -3.133,-21.344 20.947,-52.769 58.207,-74.281 15.267,-8.815 31.135,-15.06 45.972,-18.239 a 2.667,2.667 0 1 0 -1.117,-5.215016 z m -51.357,1.112004 c -26.005,-4.736016 -46.567,0.221 -54.762,14.415012 -6.115,10.592 -4.367,24.635 4.24,39.646 a 2.667,2.667 0 1 0 4.626,-2.653 c -7.752,-13.522 -9.261,-25.641 -4.247,-34.326 6.808,-11.791 25.148,-16.213008 49.187,-11.835 a 2.667,2.667 0 0 0 0.956,-5.247012 z m -36.999,72.307012 c 10.515,11.555 24.176,22.394 39.756,31.388 37.723,21.78 77.883,27.601 97.675,14.106 a 2.667,2.667 0 1 0 -3.005,-4.406 c -17.714,12.078 -55.862,6.548 -92.003,-14.318 -15.114,-8.726 -28.343,-19.222 -38.478,-30.36 a 2.667,2.667 0 1 0 -3.945,3.59 z"
         id="path1175"
         style="fill:#ff0000;fill-opacity:1;fill-rule:nonzero;stroke:none;stroke-width:0;stroke-miterlimit:4;stroke-dasharray:none;stroke-opacity:1"
         inkscape:connector-curvature="0" />
    </g>
    <path
       d="m -610.69359,141.75994 37.47115,-13.35078 38.47997,13.11343 -6.2304,49.57591 -32.24957,17.86039 -31.74519,-17.62304 z"
       style="fill:#2b2e3a;fill-opacity:1;stroke-width:0.26458332"
       id="path1179"
       inkscape:connector-curvature="0" />
    <path
       inkscape:connector-curvature="0"
       d="m -572.70267,193.70388 a 1.0482868,1.0482868 0 0 0 0.72584,-0.30687 l 8.1458,-8.146 a 1.0482868,1.0482868 0 0 0 0,-1.48227 l -8.1458,-8.14579 a 1.0482868,1.0482868 0 0 0 -1.48228,0 l -0.7413,0.74125 1.48235,1.48228 6.66345,6.6635 -6.66345,6.6635 -6.66352,-6.6635 4.55142,-4.55164 -1.48209,-1.48228 -5.29266,5.29268 a 1.0482868,1.0482868 0 0 0 -1.9e-4,1.48249 l 8.1458,8.14578 a 1.0482868,1.0482868 0 0 0 0.7567,0.30687 z m -0.0308,-34.6948 a 1.0482868,1.0482868 0 0 0 -0.72583,0.30688 l -8.14574,8.14598 a 1.0482868,1.0482868 0 0 0 0,1.48228 l 8.14574,8.14578 a 1.0482868,1.0482868 0 0 0 1.48228,0 l 0.74123,-0.74125 -1.48228,-1.48228 -6.66352,-6.6635 6.66352,-6.66348 6.66346,6.66348 -4.55136,4.55164 1.48209,1.48228 5.29266,-5.29267 a 1.0482868,1.0482868 0 0 0 2.5e-4,-1.48249 l -8.1458,-8.14577 a 1.0482868,1.0482868 0 0 0 -0.75663,-0.30688 z"
       style="color:#000000;font-style:normal;font-variant:normal;font-weight:normal;font-stretch:normal;font-size:medium;line-height:normal;font-family:sans-serif;font-variant-ligatures:normal;font-variant-position:normal;font-variant-caps:normal;font-variant-numeric:normal;font-variant-alternates:normal;font-feature-settings:normal;text-indent:0;text-align:start;text-decoration:none;text-decoration-line:none;text-decoration-style:solid;text-decoration-color:#000000;letter-spacing:normal;word-spacing:normal;text-transform:none;writing-mode:lr-tb;direction:ltr;text-orientation:mixed;dominant-baseline:auto;baseline-shift:baseline;text-anchor:start;white-space:normal;shape-padding:0;clip-rule:nonzero;display:inline;overflow:visible;visibility:visible;opacity:1;isolation:auto;mix-blend-mode:normal;color-interpolation:sRGB;color-interpolation-filters:linearRGB;solid-color:#000000;solid-opacity:1;vector-effect:none;fill:#b0b4bc;fill-opacity:1;fill-rule:nonzero;stroke:none;stroke-width:5.19999981;stroke-linecap:round;stroke-linejoin:round;stroke-miterlimit:4;stroke-dasharray:none;stroke-dashoffset:0;stroke-opacity:1;color-rendering:auto;image-rendering:auto;shape-rendering:auto;text-rendering:auto;enable-background:accumulate"
       id="path1181" />
    <g
       transform="matrix(0.4246094,0,0,0.4246094,-741.68192,104.50546)"
       style="fill:#9feaf9;fill-rule:nonzero;stroke-width:0.62312168"
       id="g1185">
      <path
         d="m 347.87701,213.71819 c 8.904,24.86 32.4515,34.26295 48.8295,34.26295 11.945,0 24.30922,-4.89271 32.92722,-19.22771 1.90377,-3.06493 -2.75712,-5.86697 -4.571,-2.748 -7.745,12.883 -18.57122,16.64171 -28.35622,16.64171 -13.605,0 -35.5795,-7.74795 -43.8085,-30.72595 -1.15286,-3.44154 -6.31367,-1.5945 -5.021,1.797 4.70334,4.26696 4.64495,2.45303 0,0 z m 91.61772,-7.51676 c 4.61,-14.728 7.085,-31.718 7.085,-49.423 0,-44.179 -12.97094,-104.553153 -34.99494,-114.332153 -3.21112,-1.34495 -5.31522,3.39415 -2.164,4.874 13.97798,6.2073 22.94771,48.589557 28.39625,74.905383 2.20819,10.66532 3.42869,22.35291 3.42869,34.55277 0,17.177 -2.397,33.63 -6.84,47.83 -1.12646,3.42677 4.0619,5.05055 5.09,1.593 z m 61.71517,-5.38096 c 0,-7.049 -5.714,-12.763 -12.763,-12.763 -7.049,0 -12.763,5.714 -12.763,12.763 0,7.049 5.714,12.763 12.763,12.763 7.049,0 12.763,-5.714 12.763,-12.763 z m -5.333,0 c 0,4.10348 -3.32652,7.43 -7.43,7.43 -4.10348,0 -7.43,-3.32652 -7.43,-7.43 0,-4.10348 3.32652,-7.43 7.43,-7.43 4.10348,0 7.43,3.32652 7.43,7.43 z m -189.29903,16.77799 c 7.05,0 12.764,-5.714 12.764,-12.763 0,-7.049 -5.715,-12.763 -12.764,-12.763 -7.048,0 -12.763,5.714 -12.763,12.763 0,7.049 5.715,12.763 12.763,12.763 z m 0,-5.333 c -4.10348,0 -7.43,-3.32652 -7.43,-7.43 0,-4.10348 3.32652,-7.43 7.43,-7.43 4.10348,0 7.42999,3.32652 7.42999,7.43 0,4.10348 -3.32651,7.43 -7.42999,7.43 z m 90.2681,-183.492383 c -7.049,0 -12.76367,5.71468 -12.76367,12.76368 0,7.049 5.71467,12.76171 12.76367,12.76171 7.049,0 12.76172,-5.71271 12.76172,-12.76171 0,-7.049 -5.71272,-12.76368 -12.76172,-12.76368 z m 0,5.33204 c 4.10079,0.0043 7.42286,3.329866 7.42286,7.43066 0,4.100794 -3.32207,7.426352 -7.42286,7.43066 -4.10689,0.0043 -7.43847,-3.323769 -7.43847,-7.43066 0,-4.106891 3.33158,-7.434974 7.43847,-7.43066 z m 68.17676,129.959313 c 17.028,-20.116 22.973,-40.348 14.795,-54.512 -6.017,-10.423004 -17.07663,-23.125314 -33.98363,-23.345314 -3.50586,0.0044 -3.57357,5.237893 -0.069,5.333016 15.205,0.198004 24.50363,12.138298 29.43463,20.679298 6.792,11.765 1.49,29.807 -14.248,48.399 -2.35419,2.71856 1.77855,6.21683 4.071,3.446 z M 420.15414,87.997885 c -15.396,3.299012 -34.41451,9.333668 -50.15251,18.419665 -38.942,22.483 -72.92876,65.18891 -69.40076,89.22791 0.4797,3.56737 5.84326,2.77966 5.277,-0.775 -3.133,-21.344 29.53076,-62.32191 66.79076,-83.83391 15.12856,-9.09189 33.76551,-14.644647 48.60251,-17.823649 3.54576,-0.69955 2.40422,-6.029134 -1.117,-5.215016 z m -49.69562,-4.287463 c -26.005,-4.736016 -49.33595,8.66632 -57.53095,22.860328 -6.115,10.592 -7.96665,23.80432 0.64035,38.81532 1.73921,3.19038 5.39378,-0.50984 3.51842,-3.62214 -7.752,-13.522 -4.55377,-23.84118 0.46023,-32.52618 6.808,-11.791001 27.91695,-24.658324 51.95595,-20.280316 3.45507,0.57576 4.39211,-4.567204 0.956,-5.247012 z M 328.4754,165.01655 c 10.515,11.555 28.60633,26.68588 44.18633,35.67988 37.723,21.78 89.37417,24.83204 109.16617,11.33704 3.02478,-1.9864 -0.0515,-6.49693 -3.005,-4.406 -17.714,12.078 -67.35317,9.31696 -103.49417,-11.54904 -15.114,-8.726 -32.77333,-23.51388 -42.90833,-34.65188 -2.39239,-2.64961 -6.35794,0.9591 -3.945,3.59 z"
         id="path1183"
         style="fill:#e23237;fill-opacity:1;fill-rule:nonzero;stroke-width:0.62312168"
         inkscape:connector-curvature="0"
         sodipodi:nodetypes="csccscccsccsscccsssssssssssssssssssssssssscsssccccccccccccccccccccccccccccc" />
    </g>
    <path
       inkscape:connector-curvature="0"
       id="path1187"
       d="m -572.718,145.85173 a 3.3140825,3.3140825 0 0 0 -3.31416,3.31408 3.3140825,3.3140825 0 0 0 3.31416,3.31409 3.3140825,3.3140825 0 0 0 3.31404,-3.31409 3.3140825,3.3140825 0 0 0 -3.31404,-3.31408 z m 0,1.48077 a 1.8333223,1.8333223 0 0 1 1.83326,1.83331 1.8333223,1.8333223 0 0 1 -1.83326,1.83333 1.8333223,1.8333223 0 0 1 -1.83339,-1.83333 1.8333223,1.8333223 0 0 1 1.83339,-1.83331 z"
       style="opacity:1;fill:#b0b4bc;fill-opacity:1;fill-rule:evenodd;stroke:#808000;stroke-width:0;stroke-linecap:round;stroke-linejoin:round;stroke-miterlimit:4;stroke-dasharray:none;stroke-dashoffset:0;stroke-opacity:1" />
    <path
       inkscape:connector-curvature="0"
       id="path1189"
       style="fill:#2b2e3a;fill-opacity:1;stroke-width:0.26458332"
       d="m -84.957098,104.42711 37.4712,-13.350794 38.479893,13.113444 -6.2304,49.57596 -32.249493,17.86039 -31.7452,-17.62303 z" />
    <g
       id="g1195"
       style="fill:#9feaf9;fill-rule:nonzero;stroke-width:0.59762436"
       transform="matrix(0.31487543,0,0,0.31487543,-172.27921,83.229441)">
      <path
         inkscape:connector-curvature="0"
         style="fill:#e23237;fill-opacity:1;fill-rule:nonzero;stroke-width:0.59762436"
         id="path1193"
         d="m 358.17273,211.06443 c 8.904,24.86 23.469,40.167 39.847,40.167 11.945,0 22.996,-8.143 31.614,-22.478 1.90377,-3.06493 -2.75712,-5.86697 -4.571,-2.748 -7.745,12.883 -17.258,19.892 -27.043,19.892 -13.605,0 -26.596,-13.652 -34.825,-36.63 -1.15286,-3.44154 -6.31367,-1.5945 -5.021,1.797 z m 81.322,-4.863 c 4.61,-14.728 7.085,-31.718 7.085,-49.423 0,-44.179 -15.463,-82.263045 -37.487,-92.042045 -3.21112,-1.34495 -5.31522,3.39415 -2.164,4.874 13.97798,6.2073 25.43977,26.299449 30.88831,52.615275 2.20819,10.66532 3.42869,22.35291 3.42869,34.55277 0,17.177 -2.397,33.63 -6.84,47.83 -1.12646,3.42677 4.0619,5.05055 5.09,1.593 z m 50.224,-2.612 c 0,-7.049 -5.714,-12.763 -12.763,-12.763 -7.049,0 -12.763,5.714 -12.763,12.763 0,7.049 5.714,12.763 12.763,12.763 7.049,0 12.763,-5.714 12.763,-12.763 z m -5.333,0 c 0,4.10348 -3.32652,7.43 -7.43,7.43 -4.10348,0 -7.43,-3.32652 -7.43,-7.43 0,-4.10348 3.32652,-7.43 7.43,-7.43 4.10348,0 7.43,3.32652 7.43,7.43 z m -165.486,12.763 c 7.05,0 12.764,-5.714 12.764,-12.763 0,-7.049 -5.715,-12.763 -12.764,-12.763 -7.048,0 -12.763,5.714 -12.763,12.763 0,7.049 5.715,12.763 12.763,12.763 z m 0,-5.333 c -4.10348,0 -7.43,-3.32652 -7.43,-7.43 0,-4.10348 3.32652,-7.43 7.43,-7.43 4.10348,0 7.42999,3.32652 7.42999,7.43 0,4.10348 -3.32651,7.43 -7.42999,7.43 z M 394.35391,51.063185 c -7.049,0 -12.76367,5.71468 -12.76367,12.76368 0,7.049 5.71467,12.76171 12.76367,12.76171 7.049,0 12.76172,-5.71271 12.76172,-12.76171 0,-7.049 -5.71272,-12.76368 -12.76172,-12.76368 z m 0,5.33204 a 7.4306641,7.4306641 0 0 1 0,14.86132 7.4306641,7.4306641 0 1 1 0,-14.86132 z m 70.66882,107.669205 c 17.028,-20.116 22.973,-40.348 14.795,-54.512 -6.017,-10.423004 -18.738,-15.926024 -35.645,-16.146024 a 2.667,2.667 0 0 0 -0.069,5.333016 c 15.205,0.198004 26.165,4.939008 31.096,13.480008 6.792,11.765 1.49,29.807 -14.248,48.399 a 2.667,2.667 0 1 0 4.071,3.446 z m -43.761,-68.175016 c -15.396,3.299012 -31.784,9.749016 -47.522,18.835016 -38.942,22.483 -64.345,55.636 -60.817,79.675 a 2.667,2.667 0 1 0 5.277,-0.775 c -3.133,-21.344 20.947,-52.769 58.207,-74.281 15.267,-8.815 31.135,-15.06 45.972,-18.239 a 2.667,2.667 0 1 0 -1.117,-5.215016 z m -51.357,1.112004 c -26.005,-4.736016 -46.567,0.221 -54.762,14.415012 -6.115,10.592 -4.367,24.635 4.24,39.646 a 2.667,2.667 0 1 0 4.626,-2.653 c -7.752,-13.522 -9.261,-25.641 -4.247,-34.326 6.808,-11.791 25.148,-16.213008 49.187,-11.835 a 2.667,2.667 0 0 0 0.956,-5.247012 z m -36.999,72.307012 c 10.515,11.555 24.176,22.394 39.756,31.388 37.723,21.78 77.883,27.601 97.675,14.106 a 2.667,2.667 0 1 0 -3.005,-4.406 c -17.714,12.078 -55.862,6.548 -92.003,-14.318 -15.114,-8.726 -28.343,-19.222 -38.478,-30.36 a 2.667,2.667 0 1 0 -3.945,3.59 z" />
    </g>
    <g
       id="g1211"
       transform="translate(-140.3165,3.85344)">
      <path
         id="path1191"
         style="opacity:1;fill:#575c76;fill-opacity:1;fill-rule:evenodd;stroke:#808000;stroke-width:0;stroke-linecap:round;stroke-linejoin:round;stroke-miterlimit:4;stroke-dasharray:none;stroke-dashoffset:0;stroke-opacity:1"
         d="m 93.83293,115.95239 a 1.8831014,1.8831014 0 0 0 -1.883041,1.8831 1.8831014,1.8831014 0 0 0 1.883041,1.88311 1.8831014,1.8831014 0 0 0 1.883151,-1.88311 1.8831014,1.8831014 0 0 0 -1.883151,-1.8831 z m 0,0.84139 a 1.0417157,1.0417157 0 0 1 1.041774,1.04171 1.0417157,1.0417157 0 0 1 -1.041774,1.04172 1.0417157,1.0417157 0 0 1 -1.041664,-1.04172 1.0417157,1.0417157 0 0 1 1.041664,-1.04171 z m -0.01105,4.9675 a 0.59564902,0.59564904 0 0 0 -0.412177,0.17434 l -4.628571,4.62856 a 0.59564902,0.59564904 0 0 0 0,0.84233 l 4.211751,4.21179 v 0.004 l 0.842151,0.84216 3.786309,3.78624 -3.786309,3.7864 -3.786199,-3.7864 0.802691,-0.80289 -0.842151,-0.84217 -1.223932,1.2239 a 0.59564902,0.59564904 0 0 0 -1.11e-4,0.84248 l 4.628571,4.62842 a 0.59564902,0.59564904 0 0 0 0.429974,0.17435 0.59564902,0.59564904 0 0 0 0.412398,-0.17435 l 4.62846,-4.62859 a 0.59564902,0.59564904 0 0 0 0,-0.84231 l -4.21175,-4.21179 v -0.004 l -0.842262,-0.84233 -3.786309,-3.78623 3.786309,-3.78639 3.786198,3.78639 -0.83784,0.83779 0.839277,0.8453 1.261845,-1.26193 a 0.59564902,0.59564904 0 0 0 0,-0.84232 l -4.62857,-4.62856 a 0.59564902,0.59564904 0 0 0 -0.429753,-0.17436 z"
         inkscape:connector-curvature="0" />
      <path
         inkscape:connector-curvature="0"
         d="m 94.362097,115.42322 a 1.8831014,1.8831014 0 0 0 -1.883041,1.8831 1.8831014,1.8831014 0 0 0 1.883041,1.88311 1.8831014,1.8831014 0 0 0 1.883151,-1.88311 1.8831014,1.8831014 0 0 0 -1.883151,-1.8831 z m 0,0.84139 a 1.0417157,1.0417157 0 0 1 1.041774,1.04171 1.0417157,1.0417157 0 0 1 -1.041774,1.04172 1.0417157,1.0417157 0 0 1 -1.041664,-1.04172 1.0417157,1.0417157 0 0 1 1.041664,-1.04171 z m -0.01105,4.9675 a 0.59564902,0.59564904 0 0 0 -0.412177,0.17434 l -4.628571,4.62856 a 0.59564902,0.59564904 0 0 0 0,0.84233 l 4.211751,4.21179 v 0.004 l 0.842151,0.84216 3.786309,3.78624 -3.786309,3.7864 -3.786199,-3.7864 0.802691,-0.80289 -0.842151,-0.84217 -1.223932,1.2239 a 0.59564902,0.59564904 0 0 0 -1.11e-4,0.84248 l 4.628571,4.62842 a 0.59564902,0.59564904 0 0 0 0.429974,0.17435 0.59564902,0.59564904 0 0 0 0.412398,-0.17435 l 4.62846,-4.62859 a 0.59564902,0.59564904 0 0 0 0,-0.84231 l -4.21175,-4.21179 v -0.004 l -0.842262,-0.84233 -3.786309,-3.78623 3.786309,-3.78639 3.786198,3.78639 -0.83784,0.83779 0.839277,0.8453 1.261845,-1.26193 a 0.59564902,0.59564904 0 0 0 0,-0.84232 L 94.7808,121.4063 a 0.59564902,0.59564904 0 0 0 -0.429753,-0.17436 z"
         style="opacity:1;fill:#b0b4bc;fill-opacity:1;fill-rule:evenodd;stroke:#808000;stroke-width:0;stroke-linecap:round;stroke-linejoin:round;stroke-miterlimit:4;stroke-dasharray:none;stroke-dashoffset:0;stroke-opacity:1"
         id="path1197" />
    </g>
    <path
       d="m -84.957098,11.706515 37.4712,-13.3507601 38.4799,13.1134101 -6.2304,49.57592 -32.2495,17.86039 -31.7452,-17.62303 z"
       style="fill:#2b2e3a;fill-opacity:1;stroke-width:0.26458332"
       id="path1213"
       inkscape:connector-curvature="0" />
    <g
       id="g1223"
       transform="matrix(1.1597381,0,0,1.159738,-227.91189,-100.23933)"
       style="stroke-width:0.86226368">
      <g
         id="g1239"
         transform="matrix(1.8410358,0,0,1.8410358,-7.5534488,-135.62976)"
         style="stroke-width:0.46835789">
        <path
           inkscape:connector-curvature="0"
           id="path1219"
           d="m 88.567348,131.31885 a 0.59564902,0.59564904 0 0 0 -0.412177,0.17434 l -4.628571,4.62856 a 0.59564902,0.59564904 0 0 0 0,0.84233 l 4.211751,4.21179 v 0.004 l 0.842151,0.84216 3.786309,3.78624 -3.786309,3.7864 -3.786199,-3.7864 0.802691,-0.80289 -0.842151,-0.84217 -1.223932,1.2239 a 0.59564902,0.59564904 0 0 0 -1.11e-4,0.84248 l 4.628571,4.62842 a 0.59564902,0.59564904 0 0 0 0.429974,0.17435 0.59564902,0.59564904 0 0 0 0.412398,-0.17435 l 4.62846,-4.62859 a 0.59564902,0.59564904 0 0 0 0,-0.84231 l -4.21175,-4.21179 v -0.004 l -0.842262,-0.84233 -3.786309,-3.78623 3.786309,-3.78639 3.786198,3.78639 -0.83784,0.83779 0.839277,0.8453 1.261845,-1.26193 a 0.59564902,0.59564904 0 0 0 0,-0.84232 l -4.62857,-4.62856 a 0.59564902,0.59564904 0 0 0 -0.429753,-0.17436 z"
           style="opacity:1;fill:#575c76;fill-opacity:1;fill-rule:evenodd;stroke:#808000;stroke-width:0;stroke-linecap:round;stroke-linejoin:round;stroke-miterlimit:4;stroke-dasharray:none;stroke-dashoffset:0;stroke-opacity:1" />
        <path
           inkscape:connector-curvature="0"
           id="path1221"
           d="m 89.096515,130.78968 a 0.59564902,0.59564904 0 0 0 -0.412177,0.17434 l -4.628571,4.62856 a 0.59564902,0.59564904 0 0 0 0,0.84233 l 4.211751,4.21179 v 0.004 l 0.842151,0.84216 3.786309,3.78624 -3.786309,3.7864 -3.786199,-3.7864 0.802691,-0.80289 -0.842151,-0.84217 -1.223932,1.2239 a 0.59564902,0.59564904 0 0 0 -1.11e-4,0.84248 l 4.628571,4.62842 a 0.59564902,0.59564904 0 0 0 0.429974,0.17435 0.59564902,0.59564904 0 0 0 0.412398,-0.17435 l 4.62846,-4.62859 a 0.59564902,0.59564904 0 0 0 0,-0.84231 l -4.21175,-4.21179 v -0.004 l -0.842262,-0.84233 -3.786309,-3.78623 3.786309,-3.78639 3.786198,3.78639 -0.83784,0.83779 0.839277,0.8453 1.261845,-1.26193 a 0.59564902,0.59564904 0 0 0 0,-0.84232 l -4.62857,-4.62856 a 0.59564902,0.59564904 0 0 0 -0.429753,-0.17436 z"
           style="opacity:1;fill:#b0b4bc;fill-opacity:1;fill-rule:evenodd;stroke:#808000;stroke-width:0;stroke-linecap:round;stroke-linejoin:round;stroke-miterlimit:4;stroke-dasharray:none;stroke-dashoffset:0;stroke-opacity:1" />
      </g>
    </g>
    <g
       transform="matrix(0.31487543,0,0,0.31487543,-172.27922,-9.4911231)"
       style="fill:#9feaf9;fill-rule:nonzero;stroke-width:0.59762436"
       id="g1217">
      <path
         d="m 358.17273,211.06443 c 8.904,24.86 23.469,40.167 39.847,40.167 11.945,0 22.996,-8.143 31.614,-22.478 1.90377,-3.06493 -2.75712,-5.86697 -4.571,-2.748 -7.745,12.883 -17.258,19.892 -27.043,19.892 -13.605,0 -26.596,-13.652 -34.825,-36.63 -1.15286,-3.44154 -6.31367,-1.5945 -5.021,1.797 z m 81.322,-4.863 c 4.61,-14.728 7.085,-31.718 7.085,-49.423 0,-44.179 -10.70966,-71.568034 -32.73366,-81.347034 -3.21112,-1.34495 -5.31522,3.39415 -2.164,4.874 13.97798,6.2073 20.68643,15.604438 26.13497,41.920264 2.20819,10.66532 3.42869,22.35291 3.42869,34.55277 0,17.177 -2.397,33.63 -6.84,47.83 -1.12646,3.42677 4.0619,5.05055 5.09,1.593 z m 50.224,-2.612 c 0,-7.049 -5.714,-12.763 -12.763,-12.763 -7.049,0 -12.763,5.714 -12.763,12.763 0,7.049 5.714,12.763 12.763,12.763 7.049,0 12.763,-5.714 12.763,-12.763 z m -5.333,0 c 0,4.10348 -3.32652,7.43 -7.43,7.43 -4.10348,0 -7.43,-3.32652 -7.43,-7.43 0,-4.10348 3.32652,-7.43 7.43,-7.43 4.10348,0 7.43,3.32652 7.43,7.43 z m -165.486,12.763 c 7.05,0 12.764,-5.714 12.764,-12.763 0,-7.049 -5.715,-12.763 -12.764,-12.763 -7.048,0 -12.763,5.714 -12.763,12.763 0,7.049 5.715,12.763 12.763,12.763 z m 0,-5.333 c -4.10348,0 -7.43,-3.32652 -7.43,-7.43 0,-4.10348 3.32652,-7.43 7.43,-7.43 4.10348,0 7.42999,3.32652 7.42999,7.43 0,4.10348 -3.32651,7.43 -7.42999,7.43 z M 399.10725,61.758196 c -7.049,0 -12.76367,5.71468 -12.76367,12.76368 0,7.049 5.71467,12.76171 12.76367,12.76171 7.049,0 12.76172,-5.71271 12.76172,-12.76171 0,-7.049 -5.71272,-12.76368 -12.76172,-12.76368 z m 0,5.33204 c 4.10079,0.0043 7.42285,3.329865 7.42285,7.43066 0,4.100794 -3.32206,7.426352 -7.42285,7.43066 -4.10689,0.0043 -7.43847,-3.323769 -7.43847,-7.43066 0,-4.106892 3.33158,-7.434975 7.43847,-7.43066 z m 65.91548,96.974194 c 17.028,-20.116 22.973,-40.348 14.795,-54.512 -6.017,-10.423004 -18.738,-15.926024 -35.645,-16.146024 -3.50586,0.0044 -3.57357,5.237893 -0.069,5.333016 15.205,0.198004 26.165,4.939008 31.096,13.480008 6.792,11.765 1.49,29.807 -14.248,48.399 -2.35419,2.71856 1.77855,6.21683 4.071,3.446 z m -43.761,-68.175016 c -15.396,3.299012 -31.784,9.749016 -47.522,18.835016 -38.942,22.483 -64.345,55.636 -60.817,79.675 0.4797,3.56737 5.84326,2.77966 5.277,-0.775 -3.133,-21.344 20.947,-52.769 58.207,-74.281 15.267,-8.815 31.135,-15.06 45.972,-18.239 3.54576,-0.69955 2.40422,-6.029134 -1.117,-5.215016 z m -51.357,1.112004 c -26.005,-4.736016 -46.567,0.221 -54.762,14.415012 -6.115,10.592 -4.367,24.635 4.24,39.646 1.73921,3.19038 6.50136,0.4593 4.626,-2.653 -7.752,-13.522 -9.261,-25.641 -4.247,-34.326 6.808,-11.791 25.148,-16.213008 49.187,-11.835 3.45507,0.57576 4.39211,-4.567204 0.956,-5.247012 z m -36.999,72.307012 c 10.515,11.555 24.176,22.394 39.756,31.388 37.723,21.78 77.883,27.601 97.675,14.106 3.02478,-1.9864 -0.0515,-6.49693 -3.005,-4.406 -17.714,12.078 -55.862,6.548 -92.003,-14.318 -15.114,-8.726 -28.343,-19.222 -38.478,-30.36 -2.39239,-2.64961 -6.35794,0.9591 -3.945,3.59 z"
         id="path1215"
         style="fill:#e23237;fill-opacity:1;fill-rule:nonzero;stroke-width:0.59762436"
         inkscape:connector-curvature="0"
         sodipodi:nodetypes="csccsccccsccsscccsssssssssssssssssssssssssssssscccccccccccccccccccccccccccc" />
    </g>
    <g
       id="g1289"
       transform="translate(51.329167,0.26458333)">
      <path
         d="m 70.637293,55.090352 37.471197,-13.350766 38.4799,13.113416 -6.2304,49.575918 -32.2495,17.86039 -31.745197,-17.62303 z"
         style="fill:#2b2e3a;fill-opacity:1;stroke-width:0.26458332"
         id="path1243"
         inkscape:connector-curvature="0" />
      <g
         id="g1251"
         transform="matrix(1.1597381,0,0,1.159738,-72.3175,-56.855495)"
         style="stroke-width:0.86226368">
        <g
           id="g1249"
           transform="matrix(1.8410358,0,0,1.8410358,-7.5534488,-135.62976)"
           style="stroke-width:0.46835789">
          <path
             inkscape:connector-curvature="0"
             id="path1245"
             d="m 88.567348,131.31885 a 0.59564902,0.59564904 0 0 0 -0.412177,0.17434 l -4.628571,4.62856 a 0.59564902,0.59564904 0 0 0 0,0.84233 l 4.211751,4.21179 v 0.004 l 0.842151,0.84216 3.786309,3.78624 -3.786309,3.7864 -3.786199,-3.7864 0.802691,-0.80289 -0.842151,-0.84217 -1.223932,1.2239 a 0.59564902,0.59564904 0 0 0 -1.11e-4,0.84248 l 4.628571,4.62842 a 0.59564902,0.59564904 0 0 0 0.429974,0.17435 0.59564902,0.59564904 0 0 0 0.412398,-0.17435 l 4.62846,-4.62859 a 0.59564902,0.59564904 0 0 0 0,-0.84231 l -4.21175,-4.21179 v -0.004 l -0.842262,-0.84233 -3.786309,-3.78623 3.786309,-3.78639 3.786198,3.78639 -0.83784,0.83779 0.839277,0.8453 1.261845,-1.26193 a 0.59564902,0.59564904 0 0 0 0,-0.84232 l -4.62857,-4.62856 a 0.59564902,0.59564904 0 0 0 -0.429753,-0.17436 z"
             style="opacity:1;fill:#575c76;fill-opacity:1;fill-rule:evenodd;stroke:#808000;stroke-width:0;stroke-linecap:round;stroke-linejoin:round;stroke-miterlimit:4;stroke-dasharray:none;stroke-dashoffset:0;stroke-opacity:1" />
          <path
             inkscape:connector-curvature="0"
             id="path1247"
             d="m 89.096515,130.78968 a 0.59564902,0.59564904 0 0 0 -0.412177,0.17434 l -4.628571,4.62856 a 0.59564902,0.59564904 0 0 0 0,0.84233 l 4.211751,4.21179 v 0.004 l 0.842151,0.84216 3.786309,3.78624 -3.786309,3.7864 -3.786199,-3.7864 0.802691,-0.80289 -0.842151,-0.84217 -1.223932,1.2239 a 0.59564902,0.59564904 0 0 0 -1.11e-4,0.84248 l 4.628571,4.62842 a 0.59564902,0.59564904 0 0 0 0.429974,0.17435 0.59564902,0.59564904 0 0 0 0.412398,-0.17435 l 4.62846,-4.62859 a 0.59564902,0.59564904 0 0 0 0,-0.84231 l -4.21175,-4.21179 v -0.004 l -0.842262,-0.84233 -3.786309,-3.78623 3.786309,-3.78639 3.786198,3.78639 -0.83784,0.83779 0.839277,0.8453 1.261845,-1.26193 a 0.59564902,0.59564904 0 0 0 0,-0.84232 l -4.62857,-4.62856 a 0.59564902,0.59564904 0 0 0 -0.429753,-0.17436 z"
             style="opacity:1;fill:#b0b4bc;fill-opacity:1;fill-rule:evenodd;stroke:#808000;stroke-width:0;stroke-linecap:round;stroke-linejoin:round;stroke-miterlimit:4;stroke-dasharray:none;stroke-dashoffset:0;stroke-opacity:1" />
        </g>
      </g>
      <g
         transform="translate(-153.13641,-45.534188)"
         id="g1260">
        <g
           id="g1255"
           style="fill:#9feaf9;fill-rule:nonzero;stroke-width:0.59762436"
           transform="matrix(0.31487543,0,0,0.31487543,136.45158,79.426898)">
          <path
             sodipodi:nodetypes="csccsccccsccsscccsssssssssssssssssssssssssssssscccccccccccccccccccccccccccc"
             inkscape:connector-curvature="0"
             style="fill:#e23237;fill-opacity:1;fill-rule:nonzero;stroke-width:0.59762436"
             id="path1253"
             d="m 358.17273,211.06443 c 8.904,24.86 23.469,40.167 39.847,40.167 11.945,0 22.996,-8.143 31.614,-22.478 1.90377,-3.06493 -2.75712,-5.86697 -4.571,-2.748 -7.745,12.883 -17.258,19.892 -27.043,19.892 -13.605,0 -26.596,-13.652 -34.825,-36.63 -1.15286,-3.44154 -6.31367,-1.5945 -5.021,1.797 z m 81.322,-4.863 c 4.61,-14.728 7.085,-31.718 7.085,-49.423 0,-44.179 -10.70966,-71.568034 -32.73366,-81.347034 -3.21112,-1.34495 -5.31522,3.39415 -2.164,4.874 13.97798,6.2073 20.68643,15.604438 26.13497,41.920264 2.20819,10.66532 3.42869,22.35291 3.42869,34.55277 0,17.177 -2.397,33.63 -6.84,47.83 -1.12646,3.42677 4.0619,5.05055 5.09,1.593 z m 50.224,-2.612 c 0,-7.049 -5.714,-12.763 -12.763,-12.763 -7.049,0 -12.763,5.714 -12.763,12.763 0,7.049 5.714,12.763 12.763,12.763 7.049,0 12.763,-5.714 12.763,-12.763 z m -5.333,0 c 0,4.10348 -3.32652,7.43 -7.43,7.43 -4.10348,0 -7.43,-3.32652 -7.43,-7.43 0,-4.10348 3.32652,-7.43 7.43,-7.43 4.10348,0 7.43,3.32652 7.43,7.43 z m -165.486,12.763 c 7.05,0 12.764,-5.714 12.764,-12.763 0,-7.049 -5.715,-12.763 -12.764,-12.763 -7.048,0 -12.763,5.714 -12.763,12.763 0,7.049 5.715,12.763 12.763,12.763 z m 0,-5.333 c -4.10348,0 -7.43,-3.32652 -7.43,-7.43 0,-4.10348 3.32652,-7.43 7.43,-7.43 4.10348,0 7.42999,3.32652 7.42999,7.43 0,4.10348 -3.32651,7.43 -7.42999,7.43 z M 399.10725,61.758196 c -7.049,0 -12.76367,5.71468 -12.76367,12.76368 0,7.049 5.71467,12.76171 12.76367,12.76171 7.049,0 12.76172,-5.71271 12.76172,-12.76171 0,-7.049 -5.71272,-12.76368 -12.76172,-12.76368 z m 0,5.33204 c 4.10079,0.0043 7.42285,3.329865 7.42285,7.43066 0,4.100794 -3.32206,7.426352 -7.42285,7.43066 -4.10689,0.0043 -7.43847,-3.323769 -7.43847,-7.43066 0,-4.106892 3.33158,-7.434975 7.43847,-7.43066 z m 65.91548,96.974194 c 17.028,-20.116 22.973,-40.348 14.795,-54.512 -6.017,-10.423004 -18.738,-15.926024 -35.645,-16.146024 -3.50586,0.0044 -3.57357,5.237893 -0.069,5.333016 15.205,0.198004 26.165,4.939008 31.096,13.480008 6.792,11.765 1.49,29.807 -14.248,48.399 -2.35419,2.71856 1.77855,6.21683 4.071,3.446 z m -43.761,-68.175016 c -15.396,3.299012 -31.784,9.749016 -47.522,18.835016 -38.942,22.483 -64.345,55.636 -60.817,79.675 0.4797,3.56737 5.84326,2.77966 5.277,-0.775 -3.133,-21.344 20.947,-52.769 58.207,-74.281 15.267,-8.815 31.135,-15.06 45.972,-18.239 3.54576,-0.69955 2.40422,-6.029134 -1.117,-5.215016 z m -51.357,1.112004 c -26.005,-4.736016 -46.567,0.221 -54.762,14.415012 -6.115,10.592 -4.367,24.635 4.24,39.646 1.73921,3.19038 6.50136,0.4593 4.626,-2.653 -7.752,-13.522 -9.261,-25.641 -4.247,-34.326 6.808,-11.791 25.148,-16.213008 49.187,-11.835 3.45507,0.57576 4.39211,-4.567204 0.956,-5.247012 z m -36.999,72.307012 c 10.515,11.555 24.176,22.394 39.756,31.388 37.723,21.78 77.883,27.601 97.675,14.106 3.02478,-1.9864 -0.0515,-6.49693 -3.005,-4.406 -17.714,12.078 -55.862,6.548 -92.003,-14.318 -15.114,-8.726 -28.343,-19.222 -38.478,-30.36 -2.39239,-2.64961 -6.35794,0.9591 -3.945,3.59 z" />
        </g>
        <circle
           style="opacity:1;fill:#e23237;fill-opacity:1;stroke:none;stroke-width:0;stroke-linecap:round;stroke-linejoin:round;stroke-miterlimit:4;stroke-dasharray:none;stroke-dashoffset:0;stroke-opacity:1"
           id="path1241"
           cx="261.9375"
           cy="102.79583"
           r="2.778125" />
      </g>
    </g>
    <path
       d="m -87.265544,194.6585 37.4712,-13.35077 38.4799,13.11342 -6.2304,49.57592 -32.2495,17.86039 -31.7452,-17.62303 z"
       style="fill:#2b2e3a;fill-opacity:1;stroke-width:0.26458332"
       id="path1262"
       inkscape:connector-curvature="0" />
    <g
       id="g1270"
       transform="matrix(1.1597381,0,0,1.159738,-230.22034,82.712653)"
       style="stroke-width:0.86226368">
      <g
         id="g1268"
         transform="matrix(1.8410358,0,0,1.8410358,-7.5534488,-135.62976)"
         style="stroke-width:0.46835789">
        <path
           inkscape:connector-curvature="0"
           id="path1264"
           d="m 88.567348,131.31885 a 0.59564902,0.59564904 0 0 0 -0.412177,0.17434 l -4.628571,4.62856 a 0.59564902,0.59564904 0 0 0 0,0.84233 l 4.211751,4.21179 v 0.004 l 0.842151,0.84216 3.786309,3.78624 -3.786309,3.7864 -3.786199,-3.7864 0.802691,-0.80289 -0.842151,-0.84217 -1.223932,1.2239 a 0.59564902,0.59564904 0 0 0 -1.11e-4,0.84248 l 4.628571,4.62842 a 0.59564902,0.59564904 0 0 0 0.429974,0.17435 0.59564902,0.59564904 0 0 0 0.412398,-0.17435 l 4.62846,-4.62859 a 0.59564902,0.59564904 0 0 0 0,-0.84231 l -4.21175,-4.21179 v -0.004 l -0.842262,-0.84233 -3.786309,-3.78623 3.786309,-3.78639 3.786198,3.78639 -0.83784,0.83779 0.839277,0.8453 1.261845,-1.26193 a 0.59564902,0.59564904 0 0 0 0,-0.84232 l -4.62857,-4.62856 a 0.59564902,0.59564904 0 0 0 -0.429753,-0.17436 z"
           style="opacity:1;fill:#575c76;fill-opacity:1;fill-rule:evenodd;stroke:#808000;stroke-width:0;stroke-linecap:round;stroke-linejoin:round;stroke-miterlimit:4;stroke-dasharray:none;stroke-dashoffset:0;stroke-opacity:1" />
        <path
           inkscape:connector-curvature="0"
           id="path1266"
           d="m 89.096515,130.78968 a 0.59564902,0.59564904 0 0 0 -0.412177,0.17434 l -4.628571,4.62856 a 0.59564902,0.59564904 0 0 0 0,0.84233 l 4.211751,4.21179 v 0.004 l 0.842151,0.84216 3.786309,3.78624 -3.786309,3.7864 -3.786199,-3.7864 0.802691,-0.80289 -0.842151,-0.84217 -1.223932,1.2239 a 0.59564902,0.59564904 0 0 0 -1.11e-4,0.84248 l 4.628571,4.62842 a 0.59564902,0.59564904 0 0 0 0.429974,0.17435 0.59564902,0.59564904 0 0 0 0.412398,-0.17435 l 4.62846,-4.62859 a 0.59564902,0.59564904 0 0 0 0,-0.84231 l -4.21175,-4.21179 v -0.004 l -0.842262,-0.84233 -3.786309,-3.78623 3.786309,-3.78639 3.786198,3.78639 -0.83784,0.83779 0.839277,0.8453 1.261845,-1.26193 a 0.59564902,0.59564904 0 0 0 0,-0.84232 l -4.62857,-4.62856 a 0.59564902,0.59564904 0 0 0 -0.429753,-0.17436 z"
           style="opacity:1;fill:#b0b4bc;fill-opacity:1;fill-rule:evenodd;stroke:#808000;stroke-width:0;stroke-linecap:round;stroke-linejoin:round;stroke-miterlimit:4;stroke-dasharray:none;stroke-dashoffset:0;stroke-opacity:1" />
      </g>
    </g>
    <g
       transform="translate(-311.03924,94.03396)"
       id="g1278">
      <g
         id="g1274"
         style="fill:#9feaf9;fill-rule:nonzero;stroke-width:0.59762436"
         transform="matrix(0.31487543,0,0,0.31487543,136.45158,79.426898)">
        <path
           sodipodi:nodetypes="csccsccccsccsscccsssssssssssssssssssssssssssssscccccccccccccccccccccccccccc"
           inkscape:connector-curvature="0"
           style="fill:#e23237;fill-opacity:1;fill-rule:nonzero;stroke-width:0.59762436"
           id="path1272"
           d="m 358.17273,211.06443 c 8.904,24.86 23.469,40.167 39.847,40.167 11.945,0 22.996,-8.143 31.614,-22.478 1.90377,-3.06493 -2.75712,-5.86697 -4.571,-2.748 -7.745,12.883 -17.258,19.892 -27.043,19.892 -13.605,0 -26.596,-13.652 -34.825,-36.63 -1.15286,-3.44154 -6.31367,-1.5945 -5.021,1.797 z m 81.322,-4.863 c 4.61,-14.728 7.085,-31.718 7.085,-49.423 0,-44.179 -10.70966,-71.568034 -32.73366,-81.347034 -3.21112,-1.34495 -5.31522,3.39415 -2.164,4.874 13.97798,6.2073 20.68643,15.604438 26.13497,41.920264 2.20819,10.66532 3.42869,22.35291 3.42869,34.55277 0,17.177 -2.397,33.63 -6.84,47.83 -1.12646,3.42677 4.0619,5.05055 5.09,1.593 z m 50.224,-2.612 c 0,-7.049 -5.714,-12.763 -12.763,-12.763 -7.049,0 -12.763,5.714 -12.763,12.763 0,7.049 5.714,12.763 12.763,12.763 7.049,0 12.763,-5.714 12.763,-12.763 z m -5.333,0 c 0,4.10348 -3.32652,7.43 -7.43,7.43 -4.10348,0 -7.43,-3.32652 -7.43,-7.43 0,-4.10348 3.32652,-7.43 7.43,-7.43 4.10348,0 7.43,3.32652 7.43,7.43 z m -165.486,12.763 c 7.05,0 12.764,-5.714 12.764,-12.763 0,-7.049 -5.715,-12.763 -12.764,-12.763 -7.048,0 -12.763,5.714 -12.763,12.763 0,7.049 5.715,12.763 12.763,12.763 z m 0,-5.333 c -4.10348,0 -7.43,-3.32652 -7.43,-7.43 0,-4.10348 3.32652,-7.43 7.43,-7.43 4.10348,0 7.42999,3.32652 7.42999,7.43 0,4.10348 -3.32651,7.43 -7.42999,7.43 z M 399.10725,61.758196 c -7.049,0 -12.76367,5.71468 -12.76367,12.76368 0,7.049 5.71467,12.76171 12.76367,12.76171 7.049,0 12.76172,-5.71271 12.76172,-12.76171 0,-7.049 -5.71272,-12.76368 -12.76172,-12.76368 z m 0,5.33204 c 4.10079,0.0043 7.42285,3.329865 7.42285,7.43066 0,4.100794 -3.32206,7.426352 -7.42285,7.43066 -4.10689,0.0043 -7.43847,-3.323769 -7.43847,-7.43066 0,-4.106892 3.33158,-7.434975 7.43847,-7.43066 z m 65.91548,96.974194 c 17.028,-20.116 22.973,-40.348 14.795,-54.512 -6.017,-10.423004 -18.738,-15.926024 -35.645,-16.146024 -3.50586,0.0044 -3.57357,5.237893 -0.069,5.333016 15.205,0.198004 26.165,4.939008 31.096,13.480008 6.792,11.765 1.49,29.807 -14.248,48.399 -2.35419,2.71856 1.77855,6.21683 4.071,3.446 z m -43.761,-68.175016 c -15.396,3.299012 -31.784,9.749016 -47.522,18.835016 -38.942,22.483 -64.345,55.636 -60.817,79.675 0.4797,3.56737 5.84326,2.77966 5.277,-0.775 -3.133,-21.344 20.947,-52.769 58.207,-74.281 15.267,-8.815 31.135,-15.06 45.972,-18.239 3.54576,-0.69955 2.40422,-6.029134 -1.117,-5.215016 z m -51.357,1.112004 c -26.005,-4.736016 -46.567,0.221 -54.762,14.415012 -6.115,10.592 -4.367,24.635 4.24,39.646 1.73921,3.19038 6.50136,0.4593 4.626,-2.653 -7.752,-13.522 -9.261,-25.641 -4.247,-34.326 6.808,-11.791 25.148,-16.213008 49.187,-11.835 3.45507,0.57576 4.39211,-4.567204 0.956,-5.247012 z m -36.999,72.307012 c 10.515,11.555 24.176,22.394 39.756,31.388 37.723,21.78 77.883,27.601 97.675,14.106 3.02478,-1.9864 -0.0515,-6.49693 -3.005,-4.406 -17.714,12.078 -55.862,6.548 -92.003,-14.318 -15.114,-8.726 -28.343,-19.222 -38.478,-30.36 -2.39239,-2.64961 -6.35794,0.9591 -3.945,3.59 z" />
      </g>
      <circle
         style="opacity:1;fill:#e23237;fill-opacity:1;stroke:none;stroke-width:0;stroke-linecap:round;stroke-linejoin:round;stroke-miterlimit:4;stroke-dasharray:none;stroke-dashoffset:0;stroke-opacity:1"
         id="circle1276"
         cx="261.9375"
         cy="102.79583"
         r="2.778125" />
    </g>
    <path
       style="fill:#2b2e3a;stroke:none;stroke-width:0.26458332px;stroke-linecap:butt;stroke-linejoin:miter;stroke-opacity:1;fill-opacity:1"
       d="m -339.76527,-13.168545 61.23163,20.8668933 -9.91415,78.8882427 -51.31748,28.420539 z"
       id="path1291"
       inkscape:connector-curvature="0" />
    <path
       inkscape:connector-curvature="0"
       id="path1297"
       style="fill:#2b2e3a;fill-opacity:1;stroke-width:0.26458332"
       d="m -88.112707,282.63124 37.471197,-13.35077 38.4799,13.11342 -6.2304,49.57592 -32.2495,17.86039 -31.745197,-17.62303 z" />
    <path
       inkscape:connector-curvature="0"
       id="path1295"
       d="m -50.64154,269.28046 38.47993,13.11343 -6.23037,49.57591 -32.24956,17.86038 z"
       style="fill:#43485a;fill-opacity:1;stroke:none;stroke-width:0.26458332px;stroke-linecap:butt;stroke-linejoin:miter;stroke-opacity:1" />
    <g
       style="stroke-width:0.86226368"
       transform="matrix(1.1597381,0,0,1.159738,-231.0675,170.68539)"
       id="g1305">
      <g
         style="stroke-width:0.46835789"
         transform="matrix(1.8410358,0,0,1.8410358,-7.5534488,-135.62976)"
         id="g1303">
        <path
           style="opacity:1;fill:#575c76;fill-opacity:1;fill-rule:evenodd;stroke:#808000;stroke-width:0;stroke-linecap:round;stroke-linejoin:round;stroke-miterlimit:4;stroke-dasharray:none;stroke-dashoffset:0;stroke-opacity:1"
           d="m 88.567348,131.31885 a 0.59564902,0.59564904 0 0 0 -0.412177,0.17434 l -4.628571,4.62856 a 0.59564902,0.59564904 0 0 0 0,0.84233 l 4.211751,4.21179 v 0.004 l 0.842151,0.84216 3.786309,3.78624 -3.786309,3.7864 -3.786199,-3.7864 0.802691,-0.80289 -0.842151,-0.84217 -1.223932,1.2239 a 0.59564902,0.59564904 0 0 0 -1.11e-4,0.84248 l 4.628571,4.62842 a 0.59564902,0.59564904 0 0 0 0.429974,0.17435 0.59564902,0.59564904 0 0 0 0.412398,-0.17435 l 4.62846,-4.62859 a 0.59564902,0.59564904 0 0 0 0,-0.84231 l -4.21175,-4.21179 v -0.004 l -0.842262,-0.84233 -3.786309,-3.78623 3.786309,-3.78639 3.786198,3.78639 -0.83784,0.83779 0.839277,0.8453 1.261845,-1.26193 a 0.59564902,0.59564904 0 0 0 0,-0.84232 l -4.62857,-4.62856 a 0.59564902,0.59564904 0 0 0 -0.429753,-0.17436 z"
           id="path1299"
           inkscape:connector-curvature="0" />
        <path
           style="opacity:1;fill:#b0b4bc;fill-opacity:1;fill-rule:evenodd;stroke:#808000;stroke-width:0;stroke-linecap:round;stroke-linejoin:round;stroke-miterlimit:4;stroke-dasharray:none;stroke-dashoffset:0;stroke-opacity:1"
           d="m 89.096515,130.78968 a 0.59564902,0.59564904 0 0 0 -0.412177,0.17434 l -4.628571,4.62856 a 0.59564902,0.59564904 0 0 0 0,0.84233 l 4.211751,4.21179 v 0.004 l 0.842151,0.84216 3.786309,3.78624 -3.786309,3.7864 -3.786199,-3.7864 0.802691,-0.80289 -0.842151,-0.84217 -1.223932,1.2239 a 0.59564902,0.59564904 0 0 0 -1.11e-4,0.84248 l 4.628571,4.62842 a 0.59564902,0.59564904 0 0 0 0.429974,0.17435 0.59564902,0.59564904 0 0 0 0.412398,-0.17435 l 4.62846,-4.62859 a 0.59564902,0.59564904 0 0 0 0,-0.84231 l -4.21175,-4.21179 v -0.004 l -0.842262,-0.84233 -3.786309,-3.78623 3.786309,-3.78639 3.786198,3.78639 -0.83784,0.83779 0.839277,0.8453 1.261845,-1.26193 a 0.59564902,0.59564904 0 0 0 0,-0.84232 l -4.62857,-4.62856 a 0.59564902,0.59564904 0 0 0 -0.429753,-0.17436 z"
           id="path1301"
           inkscape:connector-curvature="0" />
      </g>
    </g>
    <g
       id="g1313"
       transform="translate(-311.8864,182.0067)">
      <g
         transform="matrix(0.31487543,0,0,0.31487543,136.45158,79.426898)"
         style="fill:#9feaf9;fill-rule:nonzero;stroke-width:0.59762436"
         id="g1309">
        <path
           d="m 358.17273,211.06443 c 8.904,24.86 23.469,40.167 39.847,40.167 11.945,0 22.996,-8.143 31.614,-22.478 1.90377,-3.06493 -2.75712,-5.86697 -4.571,-2.748 -7.745,12.883 -17.258,19.892 -27.043,19.892 -13.605,0 -26.596,-13.652 -34.825,-36.63 -1.15286,-3.44154 -6.31367,-1.5945 -5.021,1.797 z m 81.322,-4.863 c 4.61,-14.728 7.085,-31.718 7.085,-49.423 0,-44.179 -10.70966,-71.568034 -32.73366,-81.347034 -3.21112,-1.34495 -5.31522,3.39415 -2.164,4.874 13.97798,6.2073 20.68643,15.604438 26.13497,41.920264 2.20819,10.66532 3.42869,22.35291 3.42869,34.55277 0,17.177 -2.397,33.63 -6.84,47.83 -1.12646,3.42677 4.0619,5.05055 5.09,1.593 z m 50.224,-2.612 c 0,-7.049 -5.714,-12.763 -12.763,-12.763 -7.049,0 -12.763,5.714 -12.763,12.763 0,7.049 5.714,12.763 12.763,12.763 7.049,0 12.763,-5.714 12.763,-12.763 z m -5.333,0 c 0,4.10348 -3.32652,7.43 -7.43,7.43 -4.10348,0 -7.43,-3.32652 -7.43,-7.43 0,-4.10348 3.32652,-7.43 7.43,-7.43 4.10348,0 7.43,3.32652 7.43,7.43 z m -165.486,12.763 c 7.05,0 12.764,-5.714 12.764,-12.763 0,-7.049 -5.715,-12.763 -12.764,-12.763 -7.048,0 -12.763,5.714 -12.763,12.763 0,7.049 5.715,12.763 12.763,12.763 z m 0,-5.333 c -4.10348,0 -7.43,-3.32652 -7.43,-7.43 0,-4.10348 3.32652,-7.43 7.43,-7.43 4.10348,0 7.42999,3.32652 7.42999,7.43 0,4.10348 -3.32651,7.43 -7.42999,7.43 z M 399.10725,61.758196 c -7.049,0 -12.76367,5.71468 -12.76367,12.76368 0,7.049 5.71467,12.76171 12.76367,12.76171 7.049,0 12.76172,-5.71271 12.76172,-12.76171 0,-7.049 -5.71272,-12.76368 -12.76172,-12.76368 z m 0,5.33204 c 4.10079,0.0043 7.42285,3.329865 7.42285,7.43066 0,4.100794 -3.32206,7.426352 -7.42285,7.43066 -4.10689,0.0043 -7.43847,-3.323769 -7.43847,-7.43066 0,-4.106892 3.33158,-7.434975 7.43847,-7.43066 z m 65.91548,96.974194 c 17.028,-20.116 22.973,-40.348 14.795,-54.512 -6.017,-10.423004 -18.738,-15.926024 -35.645,-16.146024 -3.50586,0.0044 -3.57357,5.237893 -0.069,5.333016 15.205,0.198004 26.165,4.939008 31.096,13.480008 6.792,11.765 1.49,29.807 -14.248,48.399 -2.35419,2.71856 1.77855,6.21683 4.071,3.446 z m -43.761,-68.175016 c -15.396,3.299012 -31.784,9.749016 -47.522,18.835016 -38.942,22.483 -64.345,55.636 -60.817,79.675 0.4797,3.56737 5.84326,2.77966 5.277,-0.775 -3.133,-21.344 20.947,-52.769 58.207,-74.281 15.267,-8.815 31.135,-15.06 45.972,-18.239 3.54576,-0.69955 2.40422,-6.029134 -1.117,-5.215016 z m -51.357,1.112004 c -26.005,-4.736016 -46.567,0.221 -54.762,14.415012 -6.115,10.592 -4.367,24.635 4.24,39.646 1.73921,3.19038 6.50136,0.4593 4.626,-2.653 -7.752,-13.522 -9.261,-25.641 -4.247,-34.326 6.808,-11.791 25.148,-16.213008 49.187,-11.835 3.45507,0.57576 4.39211,-4.567204 0.956,-5.247012 z m -36.999,72.307012 c 10.515,11.555 24.176,22.394 39.756,31.388 37.723,21.78 77.883,27.601 97.675,14.106 3.02478,-1.9864 -0.0515,-6.49693 -3.005,-4.406 -17.714,12.078 -55.862,6.548 -92.003,-14.318 -15.114,-8.726 -28.343,-19.222 -38.478,-30.36 -2.39239,-2.64961 -6.35794,0.9591 -3.945,3.59 z"
           id="path1307"
           style="fill:#e23237;fill-opacity:1;fill-rule:nonzero;stroke-width:0.59762436"
           inkscape:connector-curvature="0"
           sodipodi:nodetypes="csccsccccsccsscccsssssssssssssssssssssssssssssscccccccccccccccccccccccccccc" />
      </g>
      <circle
         r="2.778125"
         cy="102.79583"
         cx="261.9375"
         id="circle1311"
         style="opacity:1;fill:#e23237;fill-opacity:1;stroke:none;stroke-width:0;stroke-linecap:round;stroke-linejoin:round;stroke-miterlimit:4;stroke-dasharray:none;stroke-dashoffset:0;stroke-opacity:1" />
    </g>
    <g
       id="g2883"
       transform="translate(0.26458333,-92.604167)"
       inkscape:export-xdpi="52"
       inkscape:export-ydpi="52">
      <path
         inkscape:connector-curvature="0"
         id="path2853"
         style="fill:#2b2e3a;fill-opacity:1;stroke:#000000;stroke-width:5;stroke-miterlimit:4;stroke-dasharray:none;stroke-opacity:0.00375941"
         d="m 22.483126,149.01666 37.471197,-13.35077 38.479897,13.11342 -6.2304,49.57592 -32.249497,17.86039 -31.745197,-17.62303 z" />
      <path
         inkscape:connector-curvature="0"
         id="path2855"
         d="M 59.954293,135.66588 98.43422,148.77931 92.20385,198.35522 59.954293,216.2156 Z"
         style="fill:#43485a;fill-opacity:1;stroke:none;stroke-width:0.26458332px;stroke-linecap:butt;stroke-linejoin:miter;stroke-opacity:1" />
      <g
         style="stroke-width:0.86226368"
         transform="matrix(1.1597381,0,0,1.159738,-120.47167,37.07081)"
         id="g2863">
        <g
           style="stroke-width:0.46835789"
           transform="matrix(1.8410358,0,0,1.8410358,-7.5534488,-135.62976)"
           id="g2861">
          <path
             style="opacity:1;fill:#575c76;fill-opacity:1;fill-rule:evenodd;stroke:#808000;stroke-width:0;stroke-linecap:round;stroke-linejoin:round;stroke-miterlimit:4;stroke-dasharray:none;stroke-dashoffset:0;stroke-opacity:1"
             d="m 88.567348,131.31885 a 0.59564902,0.59564904 0 0 0 -0.412177,0.17434 l -4.628571,4.62856 a 0.59564902,0.59564904 0 0 0 0,0.84233 l 4.211751,4.21179 v 0.004 l 0.842151,0.84216 3.786309,3.78624 -3.786309,3.7864 -3.786199,-3.7864 0.802691,-0.80289 -0.842151,-0.84217 -1.223932,1.2239 a 0.59564902,0.59564904 0 0 0 -1.11e-4,0.84248 l 4.628571,4.62842 a 0.59564902,0.59564904 0 0 0 0.429974,0.17435 0.59564902,0.59564904 0 0 0 0.412398,-0.17435 l 4.62846,-4.62859 a 0.59564902,0.59564904 0 0 0 0,-0.84231 l -4.21175,-4.21179 v -0.004 l -0.842262,-0.84233 -3.786309,-3.78623 3.786309,-3.78639 3.786198,3.78639 -0.83784,0.83779 0.839277,0.8453 1.261845,-1.26193 a 0.59564902,0.59564904 0 0 0 0,-0.84232 l -4.62857,-4.62856 a 0.59564902,0.59564904 0 0 0 -0.429753,-0.17436 z"
             id="path2857"
             inkscape:connector-curvature="0" />
          <path
             style="opacity:1;fill:#b0b4bc;fill-opacity:1;fill-rule:evenodd;stroke:#808000;stroke-width:0;stroke-linecap:round;stroke-linejoin:round;stroke-miterlimit:4;stroke-dasharray:none;stroke-dashoffset:0;stroke-opacity:1"
             d="m 89.096515,130.78968 a 0.59564902,0.59564904 0 0 0 -0.412177,0.17434 l -4.628571,4.62856 a 0.59564902,0.59564904 0 0 0 0,0.84233 l 4.211751,4.21179 v 0.004 l 0.842151,0.84216 3.786309,3.78624 -3.786309,3.7864 -3.786199,-3.7864 0.802691,-0.80289 -0.842151,-0.84217 -1.223932,1.2239 a 0.59564902,0.59564904 0 0 0 -1.11e-4,0.84248 l 4.628571,4.62842 a 0.59564902,0.59564904 0 0 0 0.429974,0.17435 0.59564902,0.59564904 0 0 0 0.412398,-0.17435 l 4.62846,-4.62859 a 0.59564902,0.59564904 0 0 0 0,-0.84231 l -4.21175,-4.21179 v -0.004 l -0.842262,-0.84233 -3.786309,-3.78623 3.786309,-3.78639 3.786198,3.78639 -0.83784,0.83779 0.839277,0.8453 1.261845,-1.26193 a 0.59564902,0.59564904 0 0 0 0,-0.84232 l -4.62857,-4.62856 a 0.59564902,0.59564904 0 0 0 -0.429753,-0.17436 z"
             id="path2859"
             inkscape:connector-curvature="0" />
        </g>
      </g>
      <g
         id="g2871"
         transform="translate(-201.29057,48.39212)">
        <g
           transform="matrix(0.31487543,0,0,0.31487543,136.45158,79.426898)"
           style="fill:#9feaf9;fill-rule:nonzero;stroke-width:0.59762436"
           id="g2867">
          <path
             d="m 358.17273,211.06443 c 8.904,24.86 23.469,40.167 39.847,40.167 11.945,0 22.996,-8.143 31.614,-22.478 1.90377,-3.06493 -2.75712,-5.86697 -4.571,-2.748 -7.745,12.883 -17.258,19.892 -27.043,19.892 -13.605,0 -26.596,-13.652 -34.825,-36.63 -1.15286,-3.44154 -6.31367,-1.5945 -5.021,1.797 z m 81.322,-4.863 c 4.61,-14.728 7.085,-31.718 7.085,-49.423 0,-44.179 -10.70966,-71.568034 -32.73366,-81.347034 -3.21112,-1.34495 -5.31522,3.39415 -2.164,4.874 13.97798,6.2073 20.68643,15.604438 26.13497,41.920264 2.20819,10.66532 3.42869,22.35291 3.42869,34.55277 0,17.177 -2.397,33.63 -6.84,47.83 -1.12646,3.42677 4.0619,5.05055 5.09,1.593 z m 50.224,-2.612 c 0,-7.049 -5.714,-12.763 -12.763,-12.763 -7.049,0 -12.763,5.714 -12.763,12.763 0,7.049 5.714,12.763 12.763,12.763 7.049,0 12.763,-5.714 12.763,-12.763 z m -5.333,0 c 0,4.10348 -3.32652,7.43 -7.43,7.43 -4.10348,0 -7.43,-3.32652 -7.43,-7.43 0,-4.10348 3.32652,-7.43 7.43,-7.43 4.10348,0 7.43,3.32652 7.43,7.43 z m -165.486,12.763 c 7.05,0 12.764,-5.714 12.764,-12.763 0,-7.049 -5.715,-12.763 -12.764,-12.763 -7.048,0 -12.763,5.714 -12.763,12.763 0,7.049 5.715,12.763 12.763,12.763 z m 0,-5.333 c -4.10348,0 -7.43,-3.32652 -7.43,-7.43 0,-4.10348 3.32652,-7.43 7.43,-7.43 4.10348,0 7.42999,3.32652 7.42999,7.43 0,4.10348 -3.32651,7.43 -7.42999,7.43 z M 399.10725,61.758196 c -7.049,0 -12.76367,5.71468 -12.76367,12.76368 0,7.049 5.71467,12.76171 12.76367,12.76171 7.049,0 12.76172,-5.71271 12.76172,-12.76171 0,-7.049 -5.71272,-12.76368 -12.76172,-12.76368 z m 0,5.33204 c 4.10079,0.0043 7.42285,3.329865 7.42285,7.43066 0,4.100794 -3.32206,7.426352 -7.42285,7.43066 -4.10689,0.0043 -7.43847,-3.323769 -7.43847,-7.43066 0,-4.106892 3.33158,-7.434975 7.43847,-7.43066 z m 65.91548,96.974194 c 17.028,-20.116 22.973,-40.348 14.795,-54.512 -6.017,-10.423004 -18.738,-15.926024 -35.645,-16.146024 -3.50586,0.0044 -3.57357,5.237893 -0.069,5.333016 15.205,0.198004 26.165,4.939008 31.096,13.480008 6.792,11.765 1.49,29.807 -14.248,48.399 -2.35419,2.71856 1.77855,6.21683 4.071,3.446 z m -43.761,-68.175016 c -15.396,3.299012 -31.784,9.749016 -47.522,18.835016 -38.942,22.483 -64.345,55.636 -60.817,79.675 0.4797,3.56737 5.84326,2.77966 5.277,-0.775 -3.133,-21.344 20.947,-52.769 58.207,-74.281 15.267,-8.815 31.135,-15.06 45.972,-18.239 3.54576,-0.69955 2.40422,-6.029134 -1.117,-5.215016 z m -51.357,1.112004 c -26.005,-4.736016 -46.567,0.221 -54.762,14.415012 -6.115,10.592 -4.367,24.635 4.24,39.646 1.73921,3.19038 6.50136,0.4593 4.626,-2.653 -7.752,-13.522 -9.261,-25.641 -4.247,-34.326 6.808,-11.791 25.148,-16.213008 49.187,-11.835 3.45507,0.57576 4.39211,-4.567204 0.956,-5.247012 z m -36.999,72.307012 c 10.515,11.555 24.176,22.394 39.756,31.388 37.723,21.78 77.883,27.601 97.675,14.106 3.02478,-1.9864 -0.0515,-6.49693 -3.005,-4.406 -17.714,12.078 -55.862,6.548 -92.003,-14.318 -15.114,-8.726 -28.343,-19.222 -38.478,-30.36 -2.39239,-2.64961 -6.35794,0.9591 -3.945,3.59 z"
             id="path2865"
             style="fill:#e23237;fill-opacity:1;fill-rule:nonzero;stroke-width:0.59762436"
             inkscape:connector-curvature="0"
             sodipodi:nodetypes="csccsccccsccsscccsssssssssssssssssssssssssssssscccccccccccccccccccccccccccc" />
        </g>
        <circle
           r="2.778125"
           cy="102.79583"
           cx="261.9375"
           id="circle2869"
           style="opacity:1;fill:#e23237;fill-opacity:1;stroke:none;stroke-width:0;stroke-linecap:round;stroke-linejoin:round;stroke-miterlimit:4;stroke-dasharray:none;stroke-dashoffset:0;stroke-opacity:1" />
      </g>
    </g>
  </g>
</svg>
