<svg xmlns="http://www.w3.org/2000/svg" xmlns:osb="http://www.openswatchbook.org/uri/2009/osb" xmlns:svg="http://www.w3.org/2000/svg" id="svg8" width="210mm" height="297mm" version="1.1" viewBox="0 0 210 297"><defs id="defs2"><linearGradient id="linearGradient4640" osb:paint="solid"><stop id="stop4638" offset="0" stop-color="#43484f" stop-opacity="1"/></linearGradient><meshgradient id="meshgradient4973" x="-213.179" y="89.479" gradientTransform="translate(-174.625,-2.2678571)" gradientUnits="userSpaceOnUse"><meshrow id="meshrow4975"><meshpatch id="meshpatch4977"><stop id="stop4979" path="c 17.4786,0 34.9573,0 52.4359,0" stop-color="#fff" stop-opacity="1"/><stop id="stop4981" path="c 0,17.4786 0,34.9573 0,52.4359" stop-color="#4d4d4d" stop-opacity="1"/><stop id="stop4983" path="c -17.4786,0 -34.9573,0 -52.4359,0" stop-color="#fff" stop-opacity="1"/><stop id="stop4985" path="c 0,-17.4786 0,-34.9573 0,-52.4359" stop-color="#4d4d4d" stop-opacity="1"/></meshpatch></meshrow></meshgradient><meshgradient id="meshgradient4999" x="-213.179" y="151.431" gradientTransform="translate(-174.625,-2.2678571)" gradientUnits="userSpaceOnUse"><meshrow id="meshrow5001"><meshpatch id="meshpatch5003"><stop id="stop5005" path="c 17.4786,0 34.9573,0 52.4359,0" stop-color="#fff" stop-opacity="1"/><stop id="stop5007" path="c 0,17.4786 0,34.9573 0,52.4359" stop-color="#4d4d4d" stop-opacity="1"/><stop id="stop5009" path="c -17.4786,0 -34.9573,0 -52.4359,0" stop-color="#fff" stop-opacity="1"/><stop id="stop5011" path="c 0,-17.4786 0,-34.9573 0,-52.4359" stop-color="#4d4d4d" stop-opacity="1"/></meshpatch></meshrow></meshgradient><meshgradient id="meshgradient5013" x="-149.576" y="89.188" gradientTransform="translate(-174.625,-2.2678571)" gradientUnits="userSpaceOnUse"><meshrow id="meshrow5015"><meshpatch id="meshpatch5017"><stop id="stop5019" path="c 17.4786,0 34.9573,0 52.4359,0" stop-color="#fff" stop-opacity="1"/><stop id="stop5021" path="c 0,17.4786 0,34.9573 0,52.4359" stop-color="#4d4d4d" stop-opacity="1"/><stop id="stop5023" path="c -17.4786,0 -34.9573,0 -52.4359,0" stop-color="#fff" stop-opacity="1"/><stop id="stop5025" path="c 0,-17.4786 0,-34.9573 0,-52.4359" stop-color="#4d4d4d" stop-opacity="1"/></meshpatch></meshrow></meshgradient><meshgradient id="meshgradient5027" x="-149.576" y="151.431" gradientTransform="translate(-174.625,-2.2678571)" gradientUnits="userSpaceOnUse"><meshrow id="meshrow5029"><meshpatch id="meshpatch5031"><stop id="stop5033" path="c 17.4786,0 34.9573,0 52.4359,0" stop-color="#fff" stop-opacity="1"/><stop id="stop5035" path="c 0,17.4786 0,34.9573 0,52.4359" stop-color="#4d4d4d" stop-opacity="1"/><stop id="stop5037" path="c -17.4786,0 -34.9573,0 -52.4359,0" stop-color="#fff" stop-opacity="1"/><stop id="stop5039" path="c 0,-17.4786 0,-34.9573 0,-52.4359" stop-color="#4d4d4d" stop-opacity="1"/></meshpatch></meshrow></meshgradient></defs><metadata id="metadata5"/><g id="layer1"><flowRoot id="flowRoot3727" fill="#000" fill-opacity="1" stroke="none" font-family="sans-serif" font-size="40" font-style="normal" font-weight="normal" letter-spacing="0" word-spacing="0" xml:space="preserve" style="line-height:1.25"><flowRegion id="flowRegion3729"><rect id="rect3731" width="42.857" height="162.857" x="-274.286" y="102.52"/></flowRegion><flowPara id="flowPara3733"/></flowRoot><path id="path3776" fill="none" fill-opacity=".7" stroke="#adff2f" stroke-dasharray="none" stroke-linecap="round" stroke-linejoin="round" stroke-miterlimit="4" stroke-opacity="1" stroke-width="3.828" d="m -435.44898,90.552636 c -9.90883,19.706574 -15.5384,41.790634 -14.293,63.937964 2.00038,20.20367 5.47063,34.44288 14.78079,50.62023" opacity=".98"/><g id="text4604" fill="#adff2f" fill-opacity="1" stroke="none" stroke-dasharray="none" stroke-linejoin="round" stroke-miterlimit="4" stroke-opacity=".85" stroke-width="1.565" aria-label="Service" font-family="Bitstream Charter" font-size="50.8" font-stretch="normal" font-style="normal" font-variant="normal" font-weight="normal" letter-spacing="9.422" opacity=".96" text-anchor="middle" transform="translate(-6.04762,2.2678572)" word-spacing="1.879" writing-mode="lr-tb" style="line-height:1.25;-inkscape-font-specification:'Bitstream Charter, Normal';font-variant-ligatures:normal;font-variant-caps:normal;font-variant-numeric:normal;font-feature-settings:normal;text-align:center"><path id="path4739" fill="#43484f" fill-opacity="1" stroke="none" stroke-dasharray="none" stroke-linejoin="round" stroke-miterlimit="4" stroke-opacity=".85" stroke-width="1.565" d="m -414.0798,80.744878 c 2.26598,-1.165424 4.73204,-3.217287 7.04791,-6.048328 5.14637,-6.291203 5.06713,-12.853565 0.42736,-16.649015 -1.73008,-1.415253 -3.66739,-2.015551 -5.74045,-1.808051 -3.24898,0.361304 -5.615,1.969947 -8.08113,3.299806 -4.49265,2.363013 -7.01956,3.446253 -9.654,1.29121 -2.87036,-2.348033 -3.11731,-5.897266 -0.3833,-9.239467 1.12577,-1.3762 2.36595,-2.330647 3.72055,-2.86334 l 1.15091,-0.043 4.21788,2.465859 1.67257,-2.044641 -6.0946,-4.985549 c -2.64481,1.708749 -4.79992,3.621187 -6.56898,5.783788 -4.56741,5.583442 -4.3238,11.623945 0.11936,15.258571 3.81404,3.119988 7.13444,2.029526 12.5921,-0.791084 5.35401,-2.774134 7.92733,-4.475728 11.19089,-1.806047 2.7524,2.251538 2.9815,5.98306 -0.13849,9.797102 -1.44741,1.7694 -2.98424,3.006242 -4.50682,3.66405 l -1.08658,-0.03564 -4.90778,-3.227115 -1.89773,2.319881 z" font-family="Bitstream Charter" font-size="50.8" font-stretch="normal" font-style="normal" font-variant="normal" font-weight="normal" letter-spacing="9.422" text-anchor="middle" word-spacing="2.834" writing-mode="lr-tb" style="-inkscape-font-specification:'Bitstream Charter, Normal';font-variant-ligatures:normal;font-variant-caps:normal;font-variant-numeric:normal;font-feature-settings:normal;text-align:center"/><path id="path4741" fill="#43484f" fill-opacity="1" stroke="none" stroke-dasharray="none" stroke-linejoin="round" stroke-miterlimit="4" stroke-opacity=".85" stroke-width="1.565" d="m -373.21963,39.327166 c -1.47093,3.153933 -3.11318,5.341826 -5.28336,6.661648 -4.38376,2.666042 -9.29792,1.135935 -12.67667,-4.419718 -0.0792,-0.130211 -0.18478,-0.303825 -0.29036,-0.477439 l 14.06275,-8.55245 c -0.24696,-0.503835 -0.51093,-0.937871 -0.77489,-1.371906 -3.24676,-5.338636 -8.28175,-6.67635 -13.01274,-3.799137 -5.81607,3.537125 -7.30738,10.568145 -3.32152,17.12208 3.88028,6.38032 10.44325,8.275194 16.17252,4.790862 2.73442,-1.662976 5.02772,-4.246816 6.57608,-7.566745 z m -9.11581,-6.28802 -10.02621,6.09758 c -1.98328,-3.84768 -0.98748,-7.782876 1.79035,-9.472248 2.90803,-1.768563 5.67541,-0.835476 7.81352,2.680211 0.13198,0.217018 0.29036,0.477439 0.42234,0.694457 z" font-family="Bitstream Charter" font-size="50.8" font-stretch="normal" font-style="normal" font-variant="normal" font-weight="normal" letter-spacing="9.422" text-anchor="middle" word-spacing="2.834" writing-mode="lr-tb" style="-inkscape-font-specification:'Bitstream Charter, Normal';font-variant-ligatures:normal;font-variant-caps:normal;font-variant-numeric:normal;font-feature-settings:normal;text-align:center"/><path id="path4743" fill="#43484f" fill-opacity="1" stroke="none" stroke-dasharray="none" stroke-linejoin="round" stroke-miterlimit="4" stroke-opacity=".85" stroke-width="1.565" d="m -358.14623,39.118178 11.87211,-2.989869 -0.44662,-1.773426 -3.51036,0.622117 -1.03595,-0.577285 -3.54814,-14.088886 c 1.42424,-2.873218 2.83825,-4.538978 4.46389,-4.948379 1.0345,-0.260528 1.9712,-0.07734 2.8101,0.549574 l 1.57638,-0.396995 -1.06692,-4.236518 c -1.14615,-0.182829 -2.13175,-0.144161 -3.11699,0.103961 -0.3941,0.09925 -0.83745,0.210904 -1.20673,0.408676 -1.41365,1.875213 -2.79009,3.898211 -4.06763,6.10585 l -1.16617,-4.630612 -1.87195,0.471431 -5.26776,3.212533 0.38459,1.527117 3.49759,-0.880833 4.49101,17.832786 -0.68822,1.011499 -2.54884,0.903832 z" font-family="Bitstream Charter" font-size="50.8" font-stretch="normal" font-style="normal" font-variant="normal" font-weight="normal" letter-spacing="9.422" text-anchor="middle" word-spacing="2.834" writing-mode="lr-tb" style="-inkscape-font-specification:'Bitstream Charter, Normal';font-variant-ligatures:normal;font-variant-caps:normal;font-variant-numeric:normal;font-feature-settings:normal;text-align:center"/><path id="path4745" fill="#43484f" fill-opacity="1" stroke="none" stroke-dasharray="none" stroke-linejoin="round" stroke-miterlimit="4" stroke-opacity=".85" stroke-width="1.565" d="m -330.27314,9.002876 -0.0983,1.87703 3.07863,0.46637 7.00449,22.647518 2.84091,0.14871 10.03566,-21.653801 3.01434,-0.249168 0.0983,-1.87703 -8.97931,-0.470028 -0.0983,1.87703 2.72883,0.346321 0.36335,0.832933 -7.36187,16.24898 -5.06711,-16.899584 0.65125,-0.779823 2.69934,-0.06218 0.0983,-1.87703 z" font-family="Bitstream Charter" font-size="50.8" font-stretch="normal" font-style="normal" font-variant="normal" font-weight="normal" letter-spacing="9.422" text-anchor="middle" word-spacing="2.834" writing-mode="lr-tb" style="-inkscape-font-specification:'Bitstream Charter, Normal';font-variant-ligatures:normal;font-variant-caps:normal;font-variant-numeric:normal;font-feature-settings:normal;text-align:center"/><path id="path4747" fill="#43484f" fill-opacity="1" stroke="none" stroke-dasharray="none" stroke-linejoin="round" stroke-miterlimit="4" stroke-opacity=".85" stroke-width="1.565" d="m -278.07466,5.6782292 c -1.53971,-0.5214178 -3.19808,0.2578267 -3.73579,1.8456499 -0.52142,1.5397074 0.32224,3.1662559 1.86194,3.6876739 1.53971,0.521417 3.19808,-0.257827 3.7195,-1.7975345 0.52142,-1.5397074 -0.30594,-3.2143716 -1.84565,-3.7357893 z m -3.8098,10.6165428 -6.11992,-0.141674 -0.50512,1.491591 3.36811,1.140601 -5.89854,17.41794 -1.07868,0.492851 -2.63161,-0.623019 -0.5866,1.732171 10.82607,3.666218 0.5866,-1.732171 -2.51679,-1.120471 -0.60537,-1.063152 6.99025,-20.641702 z" font-family="Bitstream Charter" font-size="50.8" font-stretch="normal" font-style="normal" font-variant="normal" font-weight="normal" letter-spacing="9.422" text-anchor="middle" word-spacing="2.834" writing-mode="lr-tb" style="-inkscape-font-specification:'Bitstream Charter, Normal';font-variant-ligatures:normal;font-variant-caps:normal;font-variant-numeric:normal;font-feature-settings:normal;text-align:center"/><path id="path4749" fill="#43484f" fill-opacity="1" stroke="none" stroke-dasharray="none" stroke-linejoin="round" stroke-miterlimit="4" stroke-opacity=".85" stroke-width="1.565" d="m -255.70017,55.752608 1.47128,-2.193942 c -2.56426,-0.007 -4.69021,-0.576359 -6.54663,-1.821289 -4.38788,-2.94256 -5.10705,-7.889913 -1.62691,-13.079431 3.56503,-5.316092 8.31732,-6.83889 11.94576,-4.405619 0.71725,0.480996 1.25084,1.144653 1.62907,1.948782 l -2.3201,3.459679 c 0.34993,0.84632 0.84133,1.481683 1.4742,1.906091 1.4345,0.961991 2.95688,0.698441 3.86228,-0.651678 1.64104,-2.44709 0.49447,-5.662606 -3.55588,-8.378816 -5.90677,-3.961139 -12.857,-2.444331 -17.07278,3.842159 -4.18749,6.244298 -3.26186,12.981572 2.47614,16.829536 2.27833,1.527868 5.03765,2.338485 8.26357,2.544528 z" font-family="Bitstream Charter" font-size="50.8" font-stretch="normal" font-style="normal" font-variant="normal" font-weight="normal" letter-spacing="9.422" text-anchor="middle" word-spacing="2.834" writing-mode="lr-tb" style="-inkscape-font-specification:'Bitstream Charter, Normal';font-variant-ligatures:normal;font-variant-caps:normal;font-variant-numeric:normal;font-feature-settings:normal;text-align:center"/><path id="path4751" fill="#43484f" fill-opacity="1" stroke="none" stroke-dasharray="none" stroke-linejoin="round" stroke-miterlimit="4" stroke-opacity=".85" stroke-width="1.565" d="m -230.5662,79.014465 c -3.30884,-1.078204 -5.67949,-2.443436 -7.25239,-4.437827 -3.17725,-4.02867 -2.25346,-9.091957 2.85218,-13.118573 0.11967,-0.09437 0.27922,-0.220206 0.43877,-0.346037 l 10.19237,12.923653 c 0.47023,-0.306149 0.8691,-0.620729 1.26798,-0.935308 4.9062,-3.869326 5.62439,-9.029249 2.19547,-13.377021 -4.21536,-5.344968 -11.37523,-5.973919 -17.39829,-1.22377 -5.86351,4.624316 -6.94973,11.368444 -2.79728,16.633636 1.98185,2.512932 4.82437,4.476482 8.30736,5.611434 z m 5.13792,-9.810145 -7.26678,-9.214087 c 3.57921,-2.434597 7.60603,-1.922636 9.61934,0.630184 2.10768,2.672484 1.51656,5.532483 -1.71435,8.080576 -0.19944,0.157289 -0.43877,0.346037 -0.63821,0.503327 z" font-family="Bitstream Charter" font-size="50.8" font-stretch="normal" font-style="normal" font-variant="normal" font-weight="normal" letter-spacing="9.422" text-anchor="middle" word-spacing="2.834" writing-mode="lr-tb" style="-inkscape-font-specification:'Bitstream Charter, Normal';font-variant-ligatures:normal;font-variant-caps:normal;font-variant-numeric:normal;font-feature-settings:normal;text-align:center"/></g><g id="text4612" fill="#43484f" fill-opacity="1" stroke="none" stroke-dasharray="none" stroke-dashoffset="0" stroke-linejoin="round" stroke-miterlimit="4" stroke-opacity="1" stroke-width="1.565" aria-label="Installer" font-family="Bitstream Charter" font-size="50.8" font-stretch="normal" font-style="italic" font-variant="normal" font-weight="normal" letter-spacing="9.26" text-anchor="middle" transform="translate(-6.04762,2.2678572)" word-spacing="0" writing-mode="lr-tb" style="line-height:1.25;-inkscape-font-specification:'Bitstream Charter, Italic';font-variant-ligatures:normal;font-variant-caps:normal;font-variant-numeric:normal;font-feature-settings:normal;text-align:center"><path id="path4796" fill="#43484f" fill-opacity="1" stroke="none" stroke-dasharray="none" stroke-dashoffset="0" stroke-linejoin="round" stroke-miterlimit="4" stroke-opacity="1" stroke-width="1.565" d="m -404.17967,212.58598 -1.38395,1.34579 2.08449,2.50793 -0.15672,0.93185 -24.00235,15.75864 -1.07652,-0.0869 -2.4851,-2.11837 -1.38395,1.34579 8.64136,8.88639 1.38395,-1.34579 -2.08349,-2.57977 0.0849,-0.93285 24.00235,-15.75864 1.11294,0.0515 2.51951,2.22662 1.38395,-1.34579 z" font-family="Bitstream Charter" font-size="50.8" font-stretch="normal" font-style="italic" font-variant="normal" font-weight="normal" letter-spacing="9.26" text-anchor="middle" writing-mode="lr-tb" style="-inkscape-font-specification:'Bitstream Charter, Italic';font-variant-ligatures:normal;font-variant-caps:normal;font-variant-numeric:normal;font-feature-settings:normal;text-align:center"/><path id="path4798" fill="#43484f" fill-opacity="1" stroke="none" stroke-dasharray="none" stroke-dashoffset="0" stroke-linejoin="round" stroke-miterlimit="4" stroke-opacity="1" stroke-width="1.565" d="m -392.82674,235.51019 -7.20745,-2.71834 -0.69604,1.06227 3.06665,2.92037 -14.91395,15.06799 3.61174,2.36653 12.04488,-12.63579 c 4.15108,-0.68117 7.12699,-0.31033 8.57169,0.63628 1.61465,1.05798 1.76552,2.31077 0.54049,4.18038 -0.36194,0.55238 -1.05943,1.4315 -2.16427,2.46885 l -6.9778,6.66366 c -0.82497,0.79559 -1.48143,1.5194 -1.84337,2.07178 -1.11367,1.69964 -0.65071,3.21766 1.43135,4.5819 1.18975,0.77956 3.16781,1.46831 5.93417,2.06625 l 0.77956,-1.18975 c -1.14434,-0.38541 -1.9927,-0.75908 -2.58758,-1.14887 -1.4022,-0.91877 -1.73622,-2.1701 -0.8453,-3.52982 0.41763,-0.63736 1.2426,-1.43296 2.30495,-2.49815 l 5.76013,-5.6395 c 1.34222,-1.30694 2.37673,-2.32964 3.07277,-3.39192 1.36424,-2.08206 0.86761,-4.29021 -1.34192,-5.73797 -2.25203,-1.4756 -5.80524,-1.79957 -10.91605,-1.32212 l 3.43762,-3.57799 z" font-family="Bitstream Charter" font-size="50.8" font-stretch="normal" font-style="italic" font-variant="normal" font-weight="normal" letter-spacing="9.26" text-anchor="middle" writing-mode="lr-tb" style="-inkscape-font-specification:'Bitstream Charter, Italic';font-variant-ligatures:normal;font-variant-caps:normal;font-variant-numeric:normal;font-feature-settings:normal;text-align:center"/><path id="path4800" fill="#43484f" fill-opacity="1" stroke="none" stroke-dasharray="none" stroke-dashoffset="0" stroke-linejoin="round" stroke-miterlimit="4" stroke-opacity="1" stroke-width="1.565" d="m -362.57824,257.16193 c 1.80092,0.54761 3.16833,-0.0898 3.65499,-1.42637 0.60832,-1.6707 -0.64083,-3.58522 -3.36168,-4.57592 -4.58249,-1.66853 -9.40955,0.3042 -10.83476,4.21841 -0.97331,2.67311 0.37131,4.6224 2.3448,7.66567 1.44866,2.25747 2.33773,3.82464 1.67726,5.63854 -0.92117,2.52991 -3.10031,3.46647 -5.82116,2.47577 -1.47976,-0.5388 -2.46455,-1.54612 -2.82854,-2.9221 l 1.72824,-2.07386 c -0.55518,-0.8509 -1.07144,-1.36325 -1.73972,-1.60658 -1.47976,-0.5388 -2.82979,0.0509 -3.36859,1.53066 -0.90379,2.48217 0.80949,5.05226 4.81916,6.51222 5.20303,1.89449 9.89986,-0.0175 11.41197,-4.17042 1.04284,-2.86405 -0.46237,-4.81774 -2.52691,-8.05635 -1.61781,-2.53532 -2.58938,-4.0244 -1.96368,-5.74283 0.67785,-1.86163 2.59653,-2.67677 4.5059,-1.98155 0.52508,0.19119 0.95028,0.5082 1.30595,1.01614 z" font-family="Bitstream Charter" font-size="50.8" font-stretch="normal" font-style="italic" font-variant="normal" font-weight="normal" letter-spacing="9.26" text-anchor="middle" writing-mode="lr-tb" style="-inkscape-font-specification:'Bitstream Charter, Italic';font-variant-ligatures:normal;font-variant-caps:normal;font-variant-numeric:normal;font-feature-settings:normal;text-align:center"/><path id="path4802" fill="#43484f" fill-opacity="1" stroke="none" stroke-dasharray="none" stroke-dashoffset="0" stroke-linejoin="round" stroke-miterlimit="4" stroke-opacity="1" stroke-width="1.565" d="m -342.06348,251.09005 -3.30313,4.62031 -3.91698,1.02571 -0.23832,1.50525 3.15058,0.24164 -4.86223,13.16847 c -0.52348,1.35724 -0.80653,2.49538 -0.93363,3.29818 -0.48458,3.06068 0.63184,4.78041 3.49181,5.23321 1.75613,0.27804 4.48439,-0.0615 8.07649,-0.98435 l 0.2542,-1.60561 c -2.11027,0.33453 -3.77148,0.43155 -4.9255,0.24884 -2.00701,-0.31775 -2.88592,-1.58842 -2.56817,-3.59542 0.0874,-0.55193 0.35707,-1.28072 0.65058,-2.16004 l 4.7301,-12.98366 7.62661,1.20746 0.34158,-2.15753 -7.2252,-1.14391 1.95927,-5.55313 z" font-family="Bitstream Charter" font-size="50.8" font-stretch="normal" font-style="italic" font-variant="normal" font-weight="normal" letter-spacing="9.26" text-anchor="middle" writing-mode="lr-tb" style="-inkscape-font-specification:'Bitstream Charter, Italic';font-variant-ligatures:normal;font-variant-caps:normal;font-variant-numeric:normal;font-feature-settings:normal;text-align:center"/><path id="path4804" fill="#43484f" fill-opacity="1" stroke="none" stroke-dasharray="none" stroke-dashoffset="0" stroke-linejoin="round" stroke-miterlimit="4" stroke-opacity="1" stroke-width="1.565" d="m -309.68819,256.72385 -0.94629,1.17721 c -1.61815,-0.665 -3.21163,-0.92435 -4.63141,-0.83801 -5.01993,0.30528 -8.98221,2.93825 -11.3092,7.35485 -1.55133,2.9444 -2.27286,6.14369 -2.06626,9.54102 0.3392,5.57769 3.22707,8.71017 7.53711,8.44806 2.4339,-0.14801 4.78147,-1.71581 7.29622,-4.71879 0.009,0.15212 0.0154,0.25353 0.0247,0.40565 0.15726,2.58602 1.19777,3.79509 3.32744,3.66558 1.36907,-0.0833 3.41103,-0.81817 6.12895,-2.15401 l -0.0925,-1.52119 c -1.35057,0.38749 -2.25095,0.64583 -2.80872,0.67975 -1.87613,0.11409 -2.78131,-0.54338 -2.87999,-2.16598 -0.0432,-0.70989 0.038,-1.88538 0.29121,-3.58028 l 1.27962,-9.08603 c 0.53241,-3.79852 1.04358,-6.27251 1.48588,-7.36818 z m -4.59543,2.26432 2.21635,2.96974 -1.82264,13.54682 c -1.94328,2.35751 -3.85299,3.59331 -5.77983,3.71049 -2.94097,0.17885 -4.53479,-1.75998 -4.78149,-5.81648 -0.49029,-8.06231 3.52508,-14.00661 9.45772,-14.36739 0.25353,-0.0154 0.45636,-0.0278 0.70989,-0.0432 z" font-family="Bitstream Charter" font-size="50.8" font-stretch="normal" font-style="italic" font-variant="normal" font-weight="normal" letter-spacing="9.26" text-anchor="middle" writing-mode="lr-tb" style="-inkscape-font-specification:'Bitstream Charter, Italic';font-variant-ligatures:normal;font-variant-caps:normal;font-variant-numeric:normal;font-feature-settings:normal;text-align:center"/><path id="path4806" fill="#43484f" fill-opacity="1" stroke="none" stroke-dasharray="none" stroke-dashoffset="0" stroke-linejoin="round" stroke-miterlimit="4" stroke-opacity="1" stroke-width="1.565" d="m -292.78324,239.7436 -7.04216,3.51476 0.34983,1.27363 4.49428,-0.70766 1.89044,25.29469 c 0.24639,3.19857 0.47723,5.18975 0.66561,5.87554 0.67276,2.44929 2.17134,3.30202 4.57164,2.64271 1.51855,-0.41711 3.58836,-1.51245 6.05761,-3.45506 l -0.41711,-1.51855 c -1.33502,0.89351 -2.42994,1.51035 -3.2627,1.73909 -1.76348,0.48439 -2.90949,-0.0437 -3.3266,-1.56229 -0.18838,-0.6858 -0.40471,-2.04878 -0.55104,-4.11585 l -1.82042,-25.99877 c -0.0317,-0.30737 -0.13182,-1.43888 -0.28676,-3.34553 z" font-family="Bitstream Charter" font-size="50.8" font-stretch="normal" font-style="italic" font-variant="normal" font-weight="normal" letter-spacing="9.26" text-anchor="middle" writing-mode="lr-tb" style="-inkscape-font-specification:'Bitstream Charter, Italic';font-variant-ligatures:normal;font-variant-caps:normal;font-variant-numeric:normal;font-feature-settings:normal;text-align:center"/><path id="path4808" fill="#43484f" fill-opacity="1" stroke="none" stroke-dasharray="none" stroke-dashoffset="0" stroke-linejoin="round" stroke-miterlimit="4" stroke-opacity="1" stroke-width="1.565" d="m -276.96434,233.2999 -6.37019,4.62237 0.55402,1.19899 4.31731,-1.43533 6.01424,24.64191 c 0.76776,3.11482 1.32211,5.04116 1.62043,5.68676 1.06544,2.30575 2.6836,2.90109 4.94323,1.85697 1.42956,-0.66057 3.29164,-2.08061 5.40878,-4.40196 l -0.66057,-1.42957 c -1.17036,1.10041 -2.14926,1.88851 -2.93321,2.25076 -1.66014,0.76711 -2.87726,0.43414 -3.53783,-0.99542 -0.29832,-0.64561 -0.73531,-1.95463 -1.21874,-3.9697 l -6.06068,-25.34794 c -0.0817,-0.298 -0.36607,-1.39776 -0.83169,-3.25317 z" font-family="Bitstream Charter" font-size="50.8" font-stretch="normal" font-style="italic" font-variant="normal" font-weight="normal" letter-spacing="9.26" text-anchor="middle" writing-mode="lr-tb" style="-inkscape-font-specification:'Bitstream Charter, Italic';font-variant-ligatures:normal;font-variant-caps:normal;font-variant-numeric:normal;font-feature-settings:normal;text-align:center"/><path id="path4810" fill="#43484f" fill-opacity="1" stroke="none" stroke-dasharray="none" stroke-dashoffset="0" stroke-linejoin="round" stroke-miterlimit="4" stroke-opacity="1" stroke-width="1.565" d="m -253.20421,247.68866 c -2.39348,-5.85019 -1.91172,-10.13912 0.48014,-11.85967 1.19593,-0.86027 2.82671,-0.59406 3.74631,0.68435 1.86887,2.59805 0.72077,7.17858 -4.22645,11.17532 z m 0.8024,1.55045 c 6.98457,-5.77516 9.00374,-11.23259 6.48225,-14.7379 -1.77987,-2.47434 -4.58635,-2.89608 -7.18441,-1.02721 -2.02071,1.45356 -3.84097,4.57769 -4.37193,8.27625 -0.55918,4.09431 0.57176,8.53732 3.06358,12.00139 3.44109,4.78372 7.74958,5.81462 11.62604,3.02615 2.72177,-1.95787 4.55361,-5.1529 5.33055,-9.46644 l -1.39423,-1.93823 c -0.78998,3.94745 -2.26875,6.76336 -4.16574,8.12793 -2.6393,1.89853 -5.74242,1.0644 -8.14525,-2.27595 -0.47464,-0.65983 -0.90803,-1.34932 -1.24086,-1.98599 z" font-family="Bitstream Charter" font-size="50.8" font-stretch="normal" font-style="italic" font-variant="normal" font-weight="normal" letter-spacing="9.26" text-anchor="middle" writing-mode="lr-tb" style="-inkscape-font-specification:'Bitstream Charter, Italic';font-variant-ligatures:normal;font-variant-caps:normal;font-variant-numeric:normal;font-feature-settings:normal;text-align:center"/><path id="path4812" fill="#43484f" fill-opacity="1" stroke="none" stroke-dasharray="none" stroke-dashoffset="0" stroke-linejoin="round" stroke-miterlimit="4" stroke-opacity="1" stroke-width="1.565" d="m -237.87763,219.57095 -3.80456,6.6979 0.94131,0.85255 3.36114,-2.57596 12.56933,17.07284 2.86457,-3.16279 -7.45012,-9.55771 c -2.91838,-3.73981 -3.86034,-6.78619 -1.94914,-11.77199 l 2.91988,0.86254 c 0.0682,-0.0753 0.13641,-0.15061 0.23871,-0.26356 1.39818,-1.54375 1.26822,-3.44346 -0.16257,-4.73934 -1.12957,-1.02306 -2.70816,-0.94495 -3.86763,0.33523 -1.70509,1.88262 -2.15561,5.86106 -0.91178,11.37408 l -4.0671,-5.87684 z" font-family="Bitstream Charter" font-size="50.8" font-stretch="normal" font-style="italic" font-variant="normal" font-weight="normal" letter-spacing="9.26" text-anchor="middle" writing-mode="lr-tb" style="-inkscape-font-specification:'Bitstream Charter, Italic';font-variant-ligatures:normal;font-variant-caps:normal;font-variant-numeric:normal;font-feature-settings:normal;text-align:center"/></g><path id="path4849" fill="none" fill-opacity=".7" stroke="#adff2f" stroke-dasharray="none" stroke-linecap="round" stroke-linejoin="round" stroke-miterlimit="4" stroke-opacity="1" stroke-width="3.828" d="m -218.54386,92.593708 c 9.90883,19.706572 15.5384,41.790632 14.29301,63.937962 -2.00039,20.20367 -5.47063,34.44287 -14.78079,50.62022" opacity=".98"/><rect id="rect4887" width="52.436" height="52.436" x="-387.804" y="87.212" fill="url(#meshgradient4973)" fill-opacity="1" stroke="none" stroke-dasharray="none" stroke-dashoffset="0" stroke-linecap="round" stroke-linejoin="bevel" stroke-miterlimit="4" stroke-opacity="1" stroke-width="5.729" opacity=".747"/><rect id="rect4889" width="52.436" height="52.436" x="-387.804" y="149.164" fill="url(#meshgradient4999)" fill-opacity="1" stroke="none" stroke-dasharray="none" stroke-dashoffset="0" stroke-linecap="round" stroke-linejoin="bevel" stroke-miterlimit="4" stroke-opacity="1" stroke-width="5.729" opacity=".753"/><rect id="rect4891" width="52.436" height="52.436" x="-324.201" y="149.164" fill="url(#meshgradient5027)" fill-opacity="1" stroke="none" stroke-dasharray="none" stroke-dashoffset="0" stroke-linecap="round" stroke-linejoin="bevel" stroke-miterlimit="4" stroke-opacity="1" stroke-width="5.729" opacity=".745"/><rect id="rect4893" width="52.436" height="52.436" x="-324.201" y="86.92" fill="url(#meshgradient5013)" fill-opacity="1" stroke="none" stroke-dasharray="none" stroke-dashoffset="0" stroke-linecap="round" stroke-linejoin="bevel" stroke-miterlimit="4" stroke-opacity="1" stroke-width="5.729" opacity=".742"/></g></svg>